<?xml version="1.0" encoding="UTF-8"?>
<!DOCTYPE svg PUBLIC "-//W3C//DTD SVG 1.1//EN" "http://www.w3.org/Graphics/SVG/1.1/DTD/svg11.dtd">
<!-- Creator: CorelDRAW (Versão de avaliação) -->
<svg xmlns="http://www.w3.org/2000/svg" xml:space="preserve" width="297mm" height="210mm" version="1.1" style="shape-rendering:geometricPrecision; text-rendering:geometricPrecision; image-rendering:optimizeQuality; fill-rule:evenodd; clip-rule:evenodd"
viewBox="0 0 29700 21000"
 xmlns:xlink="http://www.w3.org/1999/xlink"
 xmlns:xodm="http://www.corel.com/coreldraw/odm/2003">
 <defs>
  <style type="text/css">
   <![CDATA[
    .fil0 {fill:#69B8E6}
    .fil1 {fill:#69B3E3;fill-rule:nonzero}
   ]]>
  </style>
 </defs>
 <g id="Camada_x0020_1">
  <metadata id="CorelCorpID_0Corel-Layer"/>
  <g id="_432491024">
   <path class="fil0" d="M21570.05 13099.71l-1396.96 1.08 -930.72 0c86.66,-106.01 199.36,-217.79 276.24,-322.58 672.58,-916.76 895.87,-1959.56 943.22,-3132.87 18.25,-452.03 56.43,-1892.56 -2.29,-2274.49 -34.21,-222.49 -162.28,-417.9 -365.17,-496.46 -79.96,-30.95 -169.14,-47.88 -261.19,-44.62 -385.18,13.64 -498.66,260.76 -620.77,562.66 -224.09,554.09 -454.89,1102.33 -734.2,1586.17 -262.43,454.59 -648.47,1048.25 -1019.43,1318.26 -657.73,478.74 -1126.84,17.71 -1194.21,-734.95 -57.31,-640.22 222.32,-1453.42 525.83,-1814.45 192.59,-229.1 513.01,-407.03 804.06,-272.58 165.1,76.26 344.25,457.79 788.66,287.58 407.65,-156.13 557.17,-863.11 -401.97,-1324.63 -283.49,-136.41 -683.03,-156.74 -1001.2,-98.67 -1577.66,287.93 -2150.67,2631.6 -1847.36,3811.86 334.84,1302.94 1624.32,2029.37 2804.54,1310.02 365.66,-222.87 826.28,-620.71 1075.75,-963.55 49.06,-67.41 76.6,-100.97 135.68,-160.2 -47.04,660.33 -316.17,1326.51 -704.21,1771.62l-264.71 226.99c-205.28,149.13 -422.83,256.37 -753.7,254.57 -346,-1.87 -501.51,-83.49 -707.41,-283.44 -194.88,-189.28 -317.27,-372.11 -646.15,-358.99 -469.97,18.75 -695.86,485.7 -560.37,860.76 32.93,91.15 165.65,265.4 200.41,291.07l-6.6 0.92 -622.75 0c-50.06,-1.46 -96.05,-2.48 -135.02,-2.47l-5052.58 2.47 -6636.78 0 0 95.79 12550.56 0c29.53,21.89 56.21,68.02 174.28,162.23 671.18,535.49 1637.87,649.1 2395.3,300.86 147.23,-67.7 275.68,-137.65 397.75,-217.2 56.28,-36.68 271.93,-201.82 340.82,-245.89l2499.28 0c56.98,63.95 165.77,243.68 431.35,245.09 288.27,1.54 335.34,-135.03 454.42,-245.09l3917.89 0 0 -95.79 -361.46 0c-4.96,-0.89 -12,-1.42 -21.86,-1.45l-749.46 1.45 -2736.91 0c60.07,-462.88 -177.81,-3777.33 -155.13,-4594.26 30.99,-1116.52 1843.28,-1635.49 2615.57,60.13 538.66,1182.66 108.68,2619.71 -1391.06,2163.93 -154.06,-46.83 -321.01,-112.55 -500.41,-97.3 -307.26,26.1 -511.76,368.41 -418.4,714.45 69.31,256.88 417.04,438.66 667.31,531.62 942.87,350.21 2038.72,-50.56 2597.56,-755.63 168.64,-212.78 304.61,-485.76 385.41,-808.95 167.31,-669.19 85.86,-1435.4 -142.28,-2049.62 -108.95,-293.31 -420.72,-889.48 -662.16,-1114.39l-220.58 -217.81c-465.42,-385.8 -1060.57,-692.38 -1872.83,-661.37 -677.08,25.85 -1204.67,272.06 -1651.86,724.24 -25.17,25.45 -42.61,37.42 -72.29,67.69 -133.04,135.65 -320.13,474.01 -388.2,648.64 -131.98,338.63 -178.2,618.03 -174.74,1023.1 6.06,709.17 280.62,3678.63 403.49,4364.45z"/>
   <path class="fil0" d="M6074.01 5105.44c-674.39,82.71 -1232.22,301.44 -1645.9,807.08 -368.91,450.9 -476.28,1176.45 -585.95,1873.71 -168.62,1072.01 -319.06,2157.25 -453.46,3236.14 -47.48,381.07 -165.7,741.66 58.77,1023.15 153.94,193.05 590.82,325.91 914.39,164.42 291.02,-145.24 330.96,-453.91 402.74,-829.61 132.24,-692.23 261.63,-1390.96 374.28,-2088.36 112.03,-693.54 235.84,-1402.5 379.45,-2077.83 84.25,-396.18 292.46,-479.27 718.23,-512.65 202.27,-15.86 1046.94,-52.85 1144.46,74.88 141.11,184.79 450.77,1563.54 529.77,1912.38 158.14,698.34 263.71,1375.92 378.75,2081.46 56.71,347.8 140.63,1259.97 308.55,1538.53 272.63,452.29 947.57,421.47 1182.07,-44.38 156.17,-310.24 52.99,-709.8 6.3,-1055.6 -123.26,-912.88 -688.43,-4312.96 -1096.64,-5052.89 -57.3,-103.87 -232.25,-387.98 -303.33,-454.53 -148.68,-139.22 -83.91,-98.53 -247.87,-227.2 -460.71,-361.51 -1347.01,-456.71 -2064.61,-368.7z"/>
   <path class="fil0" d="M12246.63 6304.55c-481.37,68.85 -952.89,250.35 -1296.26,577.72 -441.9,421.31 -808.35,982.25 -773.6,1657.74 33.31,647.51 424.84,1120 788.24,1367.07 408.5,277.73 1031.52,433.51 1537.14,623.7 222.37,83.65 523.47,234.62 576.62,494 43.98,214.66 -86.15,245.95 -274.16,253.19 -166.94,6.42 -362.69,4.58 -527.65,-12.92 -460.04,-48.78 -183,-348.9 -552.2,-519.77 -320.82,-148.47 -652.79,29.91 -745.51,260.13 -201.4,500.02 235.95,1080.86 807.37,1279.03 555.85,192.77 1346.25,157.28 1842.1,-104.37 231.16,-121.97 408.14,-298.41 525.06,-550.4 188.42,-406.11 140.81,-915.72 -73.71,-1305.94 -78.49,-142.76 -231.1,-370.03 -352.07,-456.31 -206.34,-147.16 -231.54,-184.48 -494.16,-332.67 -822.75,-464.26 -2123.43,-492.24 -1779.45,-1341.16 91.02,-224.62 332.65,-451.48 528.38,-560.38 590.4,-328.52 1295.81,-11.36 1527.43,378.86 148.54,250.25 198.78,509.27 480.76,589.22 516.17,146.33 1096.06,-406.89 172.95,-1541.42 -92.4,-113.56 -162.82,-166.6 -278.71,-266.86 -345.34,-298.75 -999.8,-579.82 -1638.57,-488.46z"/>
   <path class="fil0" d="M6321.48 7450.1c-814.94,230.02 -506.46,1577.6 365.85,1353.54 322.79,-82.91 547.88,-430.27 459.33,-858.81 -69.48,-336.26 -406.33,-612.95 -825.18,-494.73z"/>
   <path class="fil0" d="M23652.58 8660.14c-295.79,65.84 -555.35,346.81 -528.62,723.86 54.67,770.97 1298.68,733.8 1211.19,-192.49 -30.6,-323.95 -295.63,-617.5 -682.57,-531.37z"/>
   <path class="fil0" d="M17256.13 8326.81c-328.15,83.08 -493.94,406.81 -431.76,727.44 59.06,304.49 349.1,525.57 705.61,452.59 696.14,-142.48 541.7,-1386.5 -273.85,-1180.03z"/>
   <path class="fil0" d="M12380.44 7815.67c-737.79,177.94 -518.36,1205.37 194.13,1026.15 256.87,-64.62 481.5,-298.37 456.98,-615.86 -23.11,-299.32 -321.08,-489.88 -651.11,-410.29z"/>
  </g>
  <path class="fil1" d="M5922.35 15916.51l-194.43 0 502.3 -1374.58 206.6 0 503.64 1374.58 -195.8 0 -122.87 -341.62 -577.91 0 -121.53 341.62zm387.53 -1077.51l-209.29 573.84 465.84 0 -210.64 -573.84c-5.39,-14.19 -10.46,-28.71 -14.85,-43.22 -3.72,-14.18 -6.42,-26.33 -8.11,-36.47 -2.01,8.11 -5.04,19.91 -9.45,35.13 -4.73,15.5 -9.11,30.37 -13.5,44.56zm0 0z"/>
  <path class="fil1" d="M7015.98 15646.44l171.48 0c0,46.93 16.87,84.39 51.32,112.07 34.1,27.02 80.34,40.52 139.06,40.52 62.81,0 111.41,-12.15 145.85,-36.45 34.08,-24.3 51.3,-58.06 51.3,-101.27 0,-31.41 -9.12,-57.05 -27,-76.97 -18.22,-19.6 -51.32,-35.79 -99.92,-48.62l-163.39 -37.8c-162.04,-38.48 -243.05,-124.56 -243.05,-257.9 0,-86.42 32.41,-154.27 97.23,-203.9 65.47,-50.29 149.86,-75.6 252.5,-75.6 100.58,0 182.28,26.65 244.4,79.66 62.1,52.33 93.85,122.53 95.86,210.65l-171.48 0c-1,-46.6 -16.88,-83.73 -47.25,-110.73 -30.72,-27.02 -72.93,-40.51 -126.94,-40.51 -56.02,0 -99.23,11.8 -129.61,35.1 -30.74,23.64 -45.93,56.71 -45.93,99.92 0,62.12 45.24,104.65 136.39,126.94l164.72 39.14c78.34,19.92 136.74,49.29 175.54,87.77 39.51,37.8 59.42,91.81 59.42,162.05 0,88.43 -34.78,158.63 -103.98,210.64 -68.52,52.32 -157.98,78.31 -268.7,78.31 -109.03,0 -195.8,-26.33 -260.59,-79.68 -64.82,-52.99 -97.23,-124.22 -97.23,-213.34zm0 0z"/>
  <path class="fil1" d="M7867.54 15646.44l171.5 0c0,46.93 16.88,84.39 51.32,112.07 34.08,27.02 80.33,40.52 139.07,40.52 62.78,0 111.41,-12.15 145.82,-36.45 34.1,-24.3 51.32,-58.06 51.32,-101.27 0,-31.41 -9.11,-57.05 -27.02,-76.97 -18.22,-19.6 -51.29,-35.79 -99.92,-48.62l-163.36 -37.8c-162.04,-38.48 -243.05,-124.56 -243.05,-257.9 0,-86.42 32.41,-154.27 97.22,-203.9 65.48,-50.29 149.87,-75.6 252.48,-75.6 100.61,0 182.31,26.65 244.4,79.66 62.13,52.33 93.85,122.53 95.88,210.65l-171.5 0c-1,-46.6 -16.87,-83.73 -47.25,-110.73 -30.72,-27.02 -72.9,-40.51 -126.91,-40.51 -56.05,0 -99.26,11.8 -129.64,35.1 -30.72,23.64 -45.9,56.71 -45.9,99.92 0,62.12 45.24,104.65 136.37,126.94l164.73 39.14c78.32,19.92 136.72,49.29 175.54,87.77 39.49,37.8 59.41,91.81 59.41,162.05 0,88.43 -34.76,158.63 -103.97,210.64 -68.54,52.32 -157.97,78.31 -268.69,78.31 -109.04,0 -195.8,-26.33 -260.62,-79.68 -64.82,-52.99 -97.23,-124.22 -97.23,-213.34zm0 0z"/>
  <path class="fil1" d="M9197.13 15939.46c-91.82,0 -172.51,-20.94 -241.71,-62.12 -68.51,-41.18 -122.53,-98.57 -162.02,-171.47 -38.82,-72.93 -58.05,-157.32 -58.05,-253.86 0,-97.22 18.88,-182.3 56.71,-255.2 37.79,-73.59 90.8,-131.32 159.32,-172.84 68.2,-42.19 147.52,-63.45 237.64,-63.45 89.11,0 166.08,18.89 230.9,56.71 65.5,37.8 116.45,91.13 152.59,159.32 35.78,68.52 54.01,149.21 54.01,241.71l0 66.16 -718.35 2.7c6.07,97.22 34.1,172.5 83.73,225.48 50.29,52.33 120.15,78.32 209.27,78.32 141.12,0 228.2,-54.33 260.61,-163.37l166.09 0c-22.61,99.92 -71.24,176.87 -145.83,230.88 -74.96,54.01 -169.81,81.03 -284.91,81.03zm-8.11 -829.07c-77.63,0 -140.42,22.61 -189.04,67.51 -47.91,44.22 -76.97,107.34 -87.77,189.04l536.07 0c0,-77.31 -23.98,-139.41 -71.57,-186.35 -46.91,-46.56 -109.38,-70.2 -187.69,-70.2zm0 0z"/>
  <path class="fil1" d="M9749.39 15646.44l171.48 0c0,46.93 16.87,84.39 51.32,112.07 34.09,27.02 80.34,40.52 139.06,40.52 62.78,0 111.41,-12.15 145.83,-36.45 34.09,-24.3 51.32,-58.06 51.32,-101.27 0,-31.41 -9.12,-57.05 -27,-76.97 -18.25,-19.6 -51.32,-35.79 -99.92,-48.62l-163.39 -37.8c-162.04,-38.48 -243.05,-124.56 -243.05,-257.9 0,-86.42 32.41,-154.27 97.23,-203.9 65.47,-50.29 149.86,-75.6 252.5,-75.6 100.58,0 182.28,26.65 244.4,79.66 62.1,52.33 93.82,122.53 95.85,210.65l-171.47 0c-1.03,-46.6 -16.88,-83.73 -47.28,-110.73 -30.72,-27.02 -72.9,-40.51 -126.91,-40.51 -56.02,0 -99.24,11.8 -129.64,35.1 -30.71,23.64 -45.9,56.71 -45.9,99.92 0,62.12 45.24,104.65 136.39,126.94l164.72 39.14c78.31,19.92 136.71,49.29 175.54,87.77 39.48,37.8 59.4,91.81 59.4,162.05 0,88.43 -34.76,158.63 -103.96,210.64 -68.52,52.32 -157.98,78.31 -268.7,78.31 -109.03,0 -195.8,-26.33 -260.59,-79.68 -64.82,-52.99 -97.23,-124.22 -97.23,-213.34zm0 0z"/>
  <path class="fil1" d="M10600.95 15646.44l171.5 0c0,46.93 16.88,84.39 51.3,112.07 34.1,27.02 80.34,40.52 139.09,40.52 62.78,0 111.38,-12.15 145.82,-36.45 34.1,-24.3 51.32,-58.06 51.32,-101.27 0,-31.41 -9.11,-57.05 -27.02,-76.97 -18.22,-19.6 -51.29,-35.79 -99.92,-48.62l-163.36 -37.8c-162.05,-38.48 -243.05,-124.56 -243.05,-257.9 0,-86.42 32.4,-154.27 97.2,-203.9 65.5,-50.29 149.89,-75.6 252.5,-75.6 100.61,0 182.3,26.65 244.4,79.66 62.12,52.33 93.85,122.53 95.88,210.65l-171.5 0c-1,-46.6 -16.88,-83.73 -47.25,-110.73 -30.72,-27.02 -72.93,-40.51 -126.92,-40.51 -56.04,0 -99.25,11.8 -129.63,35.1 -30.72,23.64 -45.91,56.71 -45.91,99.92 0,62.12 45.22,104.65 136.37,126.94l164.74 39.14c78.32,19.92 136.71,49.29 175.54,87.77 39.49,37.8 59.4,91.81 59.4,162.05 0,88.43 -34.76,158.63 -103.96,210.64 -68.54,52.32 -157.97,78.31 -268.7,78.31 -109.05,0 -195.79,-26.33 -260.61,-79.68 -64.82,-52.99 -97.23,-124.22 -97.23,-213.34zm0 0z"/>
  <path class="fil1" d="M11468.73 15450.67c0,-96.23 20.6,-180.96 62.12,-253.86 42.21,-72.92 99.92,-129.98 172.85,-171.5 73.59,-42.18 156.95,-63.44 249.79,-63.44 92.49,0 174.85,21.26 247.09,63.44 72.92,41.52 129.98,98.58 171.5,171.5 42.18,72.9 63.44,157.63 63.44,253.86 0,95.53 -21.26,180.24 -63.44,253.85 -41.52,72.9 -98.58,130.64 -171.5,172.82 -72.24,41.18 -154.6,62.12 -247.09,62.12 -92.84,0 -176.2,-20.94 -249.79,-62.12 -72.93,-42.18 -130.64,-99.92 -172.85,-172.82 -41.52,-73.61 -62.12,-158.32 -62.12,-253.85zm179.61 0c0,96.54 28.34,175.51 85.05,237.63 56.71,61.44 129.98,91.81 220.1,91.81 59.4,0 111.41,-13.84 156.63,-41.83 45.9,-27.69 81.69,-66.51 108.02,-116.14 25.99,-49.29 39.15,-106.68 39.15,-171.47 0,-64.82 -13.16,-121.87 -39.15,-171.5 -26.33,-49.29 -62.12,-88.09 -108.02,-116.11 -45.22,-27.69 -97.23,-41.87 -156.63,-41.87 -90.12,0 -163.39,30.72 -220.1,91.81 -56.71,61.44 -85.05,140.44 -85.05,237.67zm0 0z"/>
  <path class="fil1" d="M13165.9 14979.41l0 163.39 -79.66 0c-84.73,0 -151.93,24.3 -201.21,72.92 -48.6,48.6 -72.9,118.15 -72.9,207.93l0 492.86 -178.24 0 0 -927.65 167.43 0 10.81 140.44c18.91,-47.6 50.63,-86.42 95.88,-116.14 44.87,-30.37 99.23,-45.9 163.36,-45.9 16.22,0 31.4,1.34 45.91,4.06 14.18,2.01 30.4,4.71 48.62,8.09zm0 0z"/>
  <path class="fil1" d="M13421.18 14766.07c-32.41,0 -60.44,-11.46 -83.73,-35.1 -23.64,-23.3 -35.1,-50.64 -35.1,-82.38 0,-33.07 11.46,-61.1 35.1,-83.71 23.29,-22.29 51.32,-33.75 83.73,-33.75 32.38,0 59.74,11.46 82.35,33.75 23.3,22.61 35.11,50.64 35.11,83.71 0,31.74 -11.81,59.08 -35.11,82.38 -22.61,23.64 -49.97,35.1 -82.35,35.1zm-87.77 1150.44l0 -930.34 178.23 0 0 930.34 -178.23 0zm0 0z"/>
  <path class="fil1" d="M14041.98 15939.46c-99.92,0 -177.89,-25.67 -233.59,-76.96 -56.02,-51.32 -83.71,-119.18 -83.71,-203.91 0,-86.4 30.04,-154.6 90.47,-205.23 61.09,-51.32 146.17,-81.35 255.2,-90.46l293 -22.96 0 -25.67c0,-78.98 -20.92,-133.99 -62.1,-164.71 -40.52,-31.41 -92.84,-47.28 -156.63,-47.28 -74.96,0 -133.01,16.22 -174.19,48.63 -40.52,31.72 -60.75,75.27 -60.75,130.95l-156.65 0c0,-97.88 36.47,-175.86 109.37,-233.59 73.59,-58.4 170.47,-87.75 290.31,-87.75 115.13,0 208.29,30.72 279.52,91.81 70.87,61.44 106.66,154.94 106.66,280.85l0 583.33 -152.59 0 -18.88 -149.89c-24.3,53.33 -66.17,95.53 -125.6,126.94 -58.71,30.37 -125.22,45.9 -199.84,45.9zm51.32 -139.09c84.39,0 150.56,-25.64 198.5,-76.96 48.6,-51.3 72.9,-120.5 72.9,-207.95l0 -49.95 -237.64 18.91c-78.32,8.09 -135.02,27 -170.13,56.71 -34.44,29.03 -51.32,65.82 -51.32,110.72 0,49.61 16.54,87.09 49.98,112.07 33.07,24.3 78.97,36.45 137.71,36.45zm0 0z"/>
  <path class="fil1" d="M16060.72 15333.18l-540.12 0 0 583.33 -186.32 0 0 -1374.58 829.05 0 0 171.47 -642.73 0 0 449.66 540.12 0 0 170.12zm0 0z"/>
  <path class="fil1" d="M16447.29 14766.07c-32.38,0 -60.41,-11.46 -83.7,-35.1 -23.64,-23.3 -35.11,-50.64 -35.11,-82.38 0,-33.07 11.47,-61.1 35.11,-83.71 23.29,-22.29 51.32,-33.75 83.7,-33.75 32.41,0 59.77,11.46 82.38,33.75 23.3,22.61 35.1,50.64 35.1,83.71 0,31.74 -11.8,59.08 -35.1,82.38 -22.61,23.64 -49.97,35.1 -82.38,35.1zm-87.75 1150.44l0 -930.34 178.24 0 0 930.34 -178.24 0zm0 0z"/>
  <path class="fil1" d="M16974.96 15916.51l-178.23 0 0 -930.34 160.67 0 20.26 143.13c28.71,-53.01 70.55,-94.53 125.56,-124.22 54.7,-29.71 115.46,-44.56 182.31,-44.56 122.18,0 212.33,35.1 270.04,105.31 57.4,69.54 86.42,163.39 86.42,282.2l0 568.48 -178.23 0 0 -527.97c0,-94.5 -20.26,-162.04 -60.78,-202.53 -40.49,-41.18 -95.19,-62.12 -163.36,-62.12 -83.73,0 -149.21,27.68 -195.8,82.38 -45.9,55.02 -68.86,127.6 -68.86,217.38l0 492.86zm0 0z"/>
  <path class="fil1" d="M18161.12 15939.46c-99.92,0 -177.89,-25.67 -233.6,-76.96 -56.05,-51.32 -83.73,-119.18 -83.73,-203.91 0,-86.4 30.06,-154.6 90.47,-205.23 61.12,-51.32 146.17,-81.35 255.2,-90.46l293.02 -22.96 0 -25.67c0,-78.98 -20.94,-133.99 -62.12,-164.71 -40.52,-31.41 -92.82,-47.28 -156.63,-47.28 -74.93,0 -132.99,16.22 -174.19,48.63 -40.49,31.72 -60.75,75.27 -60.75,130.95l-156.63 0c0,-97.88 36.45,-175.86 109.38,-233.59 73.58,-58.4 170.47,-87.75 290.3,-87.75 115.11,0 208.27,30.72 279.5,91.81 70.89,61.44 106.66,154.94 106.66,280.85l0 583.33 -152.56 0 -18.91 -149.89c-24.31,53.33 -66.17,95.53 -125.57,126.94 -58.74,30.37 -125.25,45.9 -199.84,45.9zm51.29 -139.09c84.39,0 150.56,-25.64 198.5,-76.96 48.62,-51.3 72.92,-120.5 72.92,-207.95l0 -49.95 -237.66 18.91c-78.32,8.09 -135.02,27 -170.13,56.71 -34.41,29.03 -51.32,65.82 -51.32,110.72 0,49.61 16.56,87.09 49.98,112.07 33.06,24.3 79,36.45 137.71,36.45zm0 0z"/>
  <path class="fil1" d="M19082.98 15916.51l-178.23 0 0 -930.34 160.69 0 20.26 143.13c28.69,-53.01 70.55,-94.53 125.57,-124.22 54.68,-29.71 115.45,-44.56 182.28,-44.56 122.21,0 212.33,35.1 270.07,105.31 57.37,69.54 86.39,163.39 86.39,282.2l0 568.48 -178.23 0 0 -527.97c0,-94.5 -20.23,-162.04 -60.75,-202.53 -40.52,-41.18 -95.19,-62.12 -163.39,-62.12 -83.7,0 -149.21,27.68 -195.77,82.38 -45.93,55.02 -68.89,127.6 -68.89,217.38l0 492.86zm0 0z"/>
  <path class="fil1" d="M19936.97 15452.01c0,-97.22 18.91,-182.3 56.71,-255.2 37.82,-73.59 91.15,-131.32 160.69,-172.84 69.21,-42.19 148.87,-63.45 238.99,-63.45 116.13,0 212.33,30.72 288.96,91.81 77.31,61.44 124.24,144.14 140.43,248.44l-179.58 0c-14.53,-59.4 -44.22,-104.3 -89.12,-135.02 -44.21,-30.38 -95.87,-45.91 -155.28,-45.91 -85.73,0 -154.62,29.72 -206.6,89.12 -52.32,59.4 -78.31,140.1 -78.31,241.71 0,99.92 24.64,180.24 74.27,240.33 50.29,59.43 117.8,89.11 202.53,89.11 63.82,0 118.15,-15.53 163.39,-47.25 44.9,-32.41 75.62,-75.62 91.82,-129.63l178.23 0c-10.8,66.85 -37.14,125.59 -78.31,176.88 -40.52,50.64 -91.47,89.81 -152.59,117.49 -60.41,27.68 -127.92,41.86 -202.54,41.86 -91.15,0 -170.81,-20.26 -238.98,-60.77 -67.51,-40.49 -120.18,-97.23 -158,-170.13 -37.8,-72.92 -56.71,-158.32 -56.71,-256.55zm0 0z"/>
  <path class="fil1" d="M21413.82 15939.46c-91.81,0 -172.5,-20.94 -241.7,-62.12 -68.52,-41.18 -122.53,-98.57 -162.05,-171.47 -38.8,-72.93 -58.05,-157.32 -58.05,-253.86 0,-97.22 18.91,-182.3 56.71,-255.2 37.82,-73.59 90.8,-131.32 159.35,-172.84 68.17,-42.19 147.51,-63.45 237.63,-63.45 89.12,0 166.09,18.89 230.9,56.71 65.48,37.8 116.46,91.13 152.59,159.32 35.77,68.52 53.99,149.21 53.99,241.71l0 66.16 -718.33 2.7c6.08,97.22 34.1,172.5 83.71,225.48 50.31,52.33 120.18,78.32 209.29,78.32 141.1,0 228.21,-54.33 260.62,-163.37l166.08 0c-22.63,99.92 -71.23,176.87 -145.85,230.88 -74.93,54.01 -169.78,81.03 -284.89,81.03zm-8.11 -829.07c-77.63,0 -140.43,22.61 -189.03,67.51 -47.94,44.22 -76.97,107.34 -87.77,189.04l536.05 0c0,-77.31 -23.96,-139.41 -71.56,-186.35 -46.93,-46.56 -109.37,-70.2 -187.69,-70.2zm0 0z"/>
  <path class="fil1" d="M22130.8 14766.07c-32.41,0 -60.41,-11.46 -83.7,-35.1 -23.64,-23.3 -35.11,-50.64 -35.11,-82.38 0,-33.07 11.47,-61.1 35.11,-83.71 23.29,-22.29 51.29,-33.75 83.7,-33.75 32.41,0 59.75,11.46 82.38,33.75 23.3,22.61 35.1,50.64 35.1,83.71 0,31.74 -11.8,59.08 -35.1,82.38 -22.63,23.64 -49.97,35.1 -82.38,35.1zm-87.77 1150.44l0 -930.34 178.23 0 0 930.34 -178.23 0zm0 0z"/>
  <path class="fil1" d="M23012.25 14979.41l0 163.39 -79.69 0c-84.71,0 -151.9,24.3 -201.19,72.92 -48.6,48.6 -72.9,118.15 -72.9,207.93l0 492.86 -178.23 0 0 -927.65 167.43 0 10.8 140.44c18.91,-47.6 50.64,-86.42 95.86,-116.14 44.9,-30.37 99.26,-45.9 163.39,-45.9 16.21,0 31.4,1.34 45.9,4.06 14.19,2.01 30.4,4.71 48.63,8.09zm0 0z"/>
  <path class="fil1" d="M23413.13 15939.46c-99.92,0 -177.89,-25.67 -233.6,-76.96 -56.05,-51.32 -83.73,-119.18 -83.73,-203.91 0,-86.4 30.06,-154.6 90.49,-205.23 61.1,-51.32 146.15,-81.35 255.2,-90.46l293 -22.96 0 -25.67c0,-78.98 -20.92,-133.99 -62.12,-164.71 -40.49,-31.41 -92.82,-47.28 -156.63,-47.28 -74.93,0 -132.99,16.22 -174.17,48.63 -40.51,31.72 -60.77,75.27 -60.77,130.95l-156.63 0c0,-97.88 36.45,-175.86 109.38,-233.59 73.58,-58.4 170.46,-87.75 290.3,-87.75 115.11,0 208.27,30.72 279.5,91.81 70.89,61.44 106.68,154.94 106.68,280.85l0 583.33 -152.58 0 -18.92 -149.89c-24.3,53.33 -66.16,95.53 -125.56,126.94 -58.74,30.37 -125.25,45.9 -199.84,45.9zm51.32 -139.09c84.39,0 150.55,-25.64 198.47,-76.96 48.62,-51.3 72.92,-120.5 72.92,-207.95l0 -49.95 -237.64 18.91c-78.31,8.09 -135.04,27 -170.15,56.71 -34.42,29.03 -51.29,65.82 -51.29,110.72 0,49.61 16.53,87.09 49.94,112.07 33.1,24.3 79.01,36.45 137.75,36.45zm0 0z"/>
 </g>
</svg>
