<?xml version="1.0" encoding="UTF-8"?>
<!DOCTYPE svg PUBLIC "-//W3C//DTD SVG 1.1//EN" "http://www.w3.org/Graphics/SVG/1.1/DTD/svg11.dtd">
<!-- Creator: CorelDRAW (Versão OEM) -->
<svg xmlns="http://www.w3.org/2000/svg" xml:space="preserve" width="100%" height="100%" version="1.1" style="shape-rendering:geometricPrecision; text-rendering:geometricPrecision; image-rendering:optimizeQuality; fill-rule:evenodd; clip-rule:evenodd"
viewBox="900 4300 5200 1500"
 xmlns:xlink="http://www.w3.org/1999/xlink"
 xmlns:xodm="http://www.corel.com/coreldraw/odm/2003">
 <defs>
  <style type="text/css">
   <![CDATA[
    .fil0 {fill:#124374}
    .fil1 {fill:#153A5D}
    .fil2 {fill:#153A5E}
    .fil3 {fill:#153B5E}
    .fil4 {fill:#153B5F}
    .fil5 {fill:#153C5F}
    .fil6 {fill:#153C60}
    .fil7 {fill:#153D60}
    .fil8 {fill:#153D61}
    .fil9 {fill:#153E62}
    .fil10 {fill:#153E63}
    .fil11 {fill:#153F63}
    .fil12 {fill:#153F64}
    .fil13 {fill:#154064}
    .fil14 {fill:#154065}
    .fil15 {fill:#154165}
    .fil16 {fill:#154166}
    .fil17 {fill:#154267}
    .fil18 {fill:#154268}
    .fil19 {fill:#154368}
    .fil20 {fill:#154369}
    .fil21 {fill:#154469}
    .fil22 {fill:#15446A}
    .fil23 {fill:#15456B}
    .fil24 {fill:#15456C}
    .fil25 {fill:#15466C}
    .fil26 {fill:#15466D}
    .fil27 {fill:#15476D}
    .fil28 {fill:#15476E}
    .fil29 {fill:#15486F}
    .fil30 {fill:#154970}
    .fil31 {fill:#154971}
    .fil32 {fill:#154A71}
    .fil33 {fill:#154A72}
    .fil34 {fill:#154B72}
    .fil35 {fill:#154B73}
    .fil36 {fill:#154C74}
    .fil37 {fill:#154C75}
    .fil38 {fill:#154D75}
    .fil39 {fill:#154D76}
    .fil40 {fill:#154E76}
    .fil41 {fill:#154E77}
    .fil42 {fill:#154F78}
    .fil43 {fill:#155079}
    .fil44 {fill:#15517A}
    .fil45 {fill:#15517B}
    .fil46 {fill:#15527B}
    .fil47 {fill:#15527C}
    .fil48 {fill:#15537D}
    .fil49 {fill:#15547E}
    .fil50 {fill:#15547F}
    .fil51 {fill:#15557F}
    .fil52 {fill:#155580}
    .fil53 {fill:#155681}
    .fil54 {fill:#155782}
    .fil55 {fill:#155783}
    .fil56 {fill:#155883}
    .fil57 {fill:#155884}
    .fil58 {fill:#155985}
    .fil59 {fill:#155A86}
    .fil60 {fill:#155A87}
    .fil61 {fill:#155B87}
    .fil62 {fill:#155B88}
    .fil63 {fill:#155C89}
    .fil64 {fill:#155D89}
    .fil65 {fill:#155D8A}
    .fil66 {fill:#155E8B}
    .fil67 {fill:#155F8C}
    .fil68 {fill:#155F8D}
    .fil69 {fill:#15608E}
    .fil70 {fill:#15618F}
    .fil71 {fill:#156190}
    .fil72 {fill:#156290}
    .fil73 {fill:#156391}
    .fil74 {fill:#156392}
    .fil75 {fill:#156492}
    .fil76 {fill:#156493}
    .fil77 {fill:#156594}
    .fil78 {fill:#156595}
    .fil79 {fill:#156695}
    .fil80 {fill:#156696}
    .fil81 {fill:#156797}
    .fil82 {fill:#156897}
    .fil83 {fill:#156898}
    .fil84 {fill:#156999}
    .fil85 {fill:#15699A}
    .fil86 {fill:#166A9A}
    .fil87 {fill:#166A9B}
    .fil88 {fill:#166B9C}
    .fil89 {fill:#166B9D}
    .fil90 {fill:#166C9D}
    .fil91 {fill:#166D9E}
    .fil92 {fill:#166D9F}
    .fil93 {fill:#166E9F}
    .fil94 {fill:#166EA0}
    .fil95 {fill:#166FA1}
    .fil96 {fill:#166FA2}
    .fil97 {fill:#1670A2}
    .fil98 {fill:#1670A3}
    .fil99 {fill:#1671A4}
    .fil100 {fill:#1672A4}
    .fil101 {fill:#1672A5}
    .fil102 {fill:#1673A6}
    .fil103 {fill:#1674A7}
    .fil104 {fill:#1674A8}
    .fil105 {fill:#1675A9}
    .fil106 {fill:#1676AA}
    .fil107 {fill:#1676AB}
    .fil108 {fill:#1677AB}
    .fil109 {fill:#1678AC}
    .fil110 {fill:#1678AD}
    .fil111 {fill:#1679AD}
    .fil112 {fill:#1679AE}
    .fil113 {fill:#167AAF}
    .fil114 {fill:#167BB0}
    .fil115 {fill:#167BB1}
    .fil116 {fill:#167CB1}
    .fil117 {fill:#167CB2}
    .fil118 {fill:#167DB3}
    .fil119 {fill:#167EB4}
    .fil120 {fill:#167EB5}
    .fil121 {fill:#167FB5}
    .fil122 {fill:#167FB6}
    .fil123 {fill:#1680B7}
    .fil124 {fill:#1681B8}
    .fil125 {fill:#1681B9}
    .fil126 {fill:#1682B9}
    .fil127 {fill:#1682BA}
    .fil128 {fill:#1683BB}
    .fil129 {fill:#1684BC}
    .fil130 {fill:#1685BD}
    .fil131 {fill:#1685BE}
    .fil132 {fill:#1686BE}
    .fil133 {fill:#1686BF}
    .fil134 {fill:#1687BF}
    .fil135 {fill:#1687C0}
    .fil136 {fill:#1688C1}
    .fil137 {fill:#1688C2}
    .fil138 {fill:#1689C2}
    .fil139 {fill:#1689C3}
    .fil140 {fill:#168AC3}
    .fil141 {fill:#168AC4}
    .fil142 {fill:#168BC5}
    .fil143 {fill:#168CC6}
    .fil144 {fill:#168CC7}
    .fil145 {fill:#168DC7}
    .fil146 {fill:#168DC8}
    .fil147 {fill:#168EC8}
    .fil148 {fill:#168EC9}
    .fil149 {fill:#168FCA}
    .fil150 {fill:#168FCB}
    .fil151 {fill:#1690CB}
    .fil152 {fill:#1690CC}
    .fil153 {fill:#1691CC}
    .fil154 {fill:#1691CD}
    .fil155 {fill:#1692CE}
    .fil156 {fill:#1692CF}
    .fil157 {fill:#1693CF}
    .fil158 {fill:#1693D0}
    .fil159 {fill:#1694D0}
    .fil160 {fill:#1694D1}
    .fil161 {fill:#1695D1}
    .fil162 {fill:#1695D2}
    .fil163 {fill:#1696D3}
    .fil164 {fill:#1696D4}
    .fil165 {fill:#1697D4}
    .fil166 {fill:#1697D5}
    .fil167 {fill:#1698D5}
    .fil168 {fill:#1698D6}
    .fil169 {fill:#1699D6}
    .fil170 {fill:#1699D7}
    .fil171 {fill:#124374;fill-rule:nonzero}
   ]]>
  </style>
    <clipPath id="id0">
     <path d="M4398.07 3565.8c-10.74,7.57 27.34,162.55 92.89,382.47 103.47,347.14 243.8,823.97 379.76,1156.44 107.8,263.61 258.31,327.44 395.17,303.15 130.55,-23.17 249.15,-122.09 290.06,-385.01 56.38,-362.25 -32.03,-851.96 -65.67,-1079.11 -99,-668.96 -448.55,-2432.33 -1303.11,-2466.06 -379.1,-14.97 -774.7,315.31 -1091.4,894.94 -142.96,261.64 -255.38,551.21 -303.01,818.8 -55.87,313.91 -9.68,776.85 299.34,866.85 366.8,106.81 504.03,-185.12 660.08,-447.35 38.87,-65.27 53.71,-39.47 5.05,-94.31 -233.74,-340.84 -54.19,-772.39 386.85,-763.9 294.62,5.67 374.13,122.09 415.5,250.81 68.77,213.93 -60.27,490.84 -161.51,562.28z"/>
    </clipPath>
 </defs>
 <g id="Camada_x0020_1">
  <metadata id="CorelCorpID_0Corel-Layer"/>
  <g id="_2007084284336">
   <path class="fil0" d="M3611.9 5310.64l0.56 -487.41 -368 0.05 -0.38 155.01 193.01 0.33 0.74 167.54 -180.15 -0.36c-159.87,-2.51 -268,-120.86 -257.11,-286.9 6.83,-104.31 74.4,-180.64 153.15,-209.39 84.54,-30.85 250.93,-18.92 344.67,-18.68l106.32 -166.86c-23.31,-2.64 -259.08,-0.98 -301.88,-0.71 -103.13,0.64 -175.08,1.46 -259.6,42.78 -140.14,68.51 -217.04,202.73 -226.75,344.28 -6.39,93.13 16.32,189.44 69.25,272.31 39.01,61.07 95.62,109.4 160.65,143.01 81.57,42.16 154.32,44.57 258.95,44.15l306.57 0.85z"/>
   <path class="fil0" d="M2754.3 5142.17l-0.06 -179.98 -141.23 -143.57c-27.82,-17 -43,-15.7 -79.91,-15.59 -32.78,0.1 -253.5,3.38 -275.79,-4.73 -82.7,-30.09 -74.97,-144.35 -2.55,-165.44 23.26,-6.77 316.29,0.58 374.76,-1.84l106.85 -167.07 -539.46 -0.74 -174.25 168.99 -1.07 188.55 177.88 140.73c68,6.52 288.35,3.77 323.22,15.4 81.67,27.23 83.25,140.31 0.11,164.33l-377.39 1.33 -98.45 166.81 531.35 -1.26 175.99 -165.92z"/>
   <polygon class="fil0" points="1113.65,5309.5 1300.23,5309.13 1570.31,4715.47 1829.08,5309.3 2013.62,5309.32 1644.88,4463.3 1496.94,4463.56 "/>
   <polygon class="fil0" points="4240.38,4463.3 3715.69,4463.3 3715.47,5309.13 3893.84,5308.72 3892.94,4631.69 4377.98,4631.94 4471.11,4463.3 "/>
   <polygon class="fil0" points="3933.06,5038.53 4255.58,5038.11 4339.8,4872.13 4025.32,4871.6 "/>
   <polygon class="fil0" points="1424.29,5309.85 1707.02,5309.42 1567.8,5001.63 "/>
  </g>
  <g>
   <g style="clip-path:url(#id0)">
    <polygon class="fil1" points="2785.54,5489.6 2783.93,5423.93 5629.33,5354.17 5630.94,5419.84 "/>
    <polygon id="_1" class="fil1" points="2784.12,5431.61 2783.55,5408.56 5628.96,5338.81 5629.52,5361.85 "/>
    <polygon id="_2" class="fil1" points="2783.74,5416.25 2783.17,5393.2 5628.58,5323.44 5629.15,5346.49 "/>
    <polygon id="_3" class="fil1" points="2783.36,5400.88 2782.8,5377.83 5628.2,5308.07 5628.77,5331.12 "/>
    <polygon id="_4" class="fil1" points="2782.99,5385.52 2782.42,5362.47 5627.83,5292.71 5628.39,5315.76 "/>
    <polygon id="_5" class="fil1" points="2782.61,5370.15 2782.04,5347.1 5627.45,5277.34 5628.02,5300.39 "/>
    <polygon id="_6" class="fil1" points="2782.23,5354.78 2781.67,5331.73 5627.07,5261.98 5627.64,5285.02 "/>
    <polygon id="_7" class="fil1" points="2781.85,5339.42 2781.29,5316.37 5626.7,5246.61 5627.26,5269.66 "/>
    <polygon id="_8" class="fil1" points="2781.48,5324.05 2780.91,5301 5626.32,5231.24 5626.89,5254.29 "/>
    <polygon id="_9" class="fil1" points="2781.1,5308.69 2780.54,5285.64 5625.94,5215.88 5626.51,5238.93 "/>
    <polygon id="_10" class="fil2" points="2780.72,5293.32 2780.16,5270.27 5625.57,5200.51 5626.13,5223.56 "/>
    <polygon id="_11" class="fil3" points="2780.35,5277.95 2779.78,5254.91 5625.19,5185.15 5625.75,5208.2 "/>
    <polygon id="_12" class="fil3" points="2779.97,5262.59 2779.41,5239.54 5624.81,5169.78 5625.38,5192.83 "/>
    <polygon id="_13" class="fil3" points="2779.59,5247.22 2779.03,5224.17 5624.44,5154.41 5625,5177.46 "/>
    <polygon id="_14" class="fil3" points="2779.22,5231.86 2778.65,5208.81 5624.06,5139.05 5624.62,5162.1 "/>
    <polygon id="_15" class="fil3" points="2778.84,5216.49 2778.28,5193.44 5623.68,5123.68 5624.25,5146.73 "/>
    <polygon id="_16" class="fil3" points="2778.46,5201.12 2777.9,5178.08 5623.31,5108.32 5623.87,5131.37 "/>
    <polygon id="_17" class="fil4" points="2778.09,5185.76 2777.52,5162.71 5622.93,5092.95 5623.49,5116 "/>
    <polygon id="_18" class="fil4" points="2777.71,5170.39 2777.15,5147.34 5622.55,5077.58 5623.12,5100.63 "/>
    <polygon id="_19" class="fil5" points="2777.33,5155.03 2776.77,5131.98 5622.18,5062.22 5622.74,5085.27 "/>
    <polygon id="_20" class="fil5" points="2776.96,5139.66 2776.39,5116.61 5621.8,5046.85 5622.36,5069.9 "/>
    <polygon id="_21" class="fil5" points="2776.58,5124.29 2776.02,5101.25 5621.42,5031.49 5621.99,5054.54 "/>
    <polygon id="_22" class="fil6" points="2776.2,5108.93 2775.64,5085.88 5621.05,5016.12 5621.61,5039.17 "/>
    <polygon id="_23" class="fil6" points="2775.83,5093.56 2775.26,5070.51 5620.67,5000.76 5621.23,5023.8 "/>
    <polygon id="_24" class="fil6" points="2775.45,5078.2 2774.89,5055.15 5620.29,4985.39 5620.86,5008.44 "/>
    <polygon id="_25" class="fil7" points="2775.07,5062.83 2774.51,5039.78 5619.92,4970.02 5620.48,4993.07 "/>
    <polygon id="_26" class="fil8" points="2774.7,5047.47 2774.13,5024.42 5619.54,4954.66 5620.1,4977.71 "/>
    <polygon id="_27" class="fil8" points="2774.32,5032.1 2773.76,5009.05 5619.16,4939.29 5619.73,4962.34 "/>
    <polygon id="_28" class="fil8" points="2773.94,5016.73 2773.38,4993.68 5618.79,4923.93 5619.35,4946.97 "/>
    <polygon id="_29" class="fil8" points="2773.57,5001.37 2773,4978.32 5618.41,4908.56 5618.97,4931.61 "/>
    <polygon id="_30" class="fil9" points="2773.19,4986 2772.63,4962.95 5618.03,4893.19 5618.6,4916.24 "/>
    <polygon id="_31" class="fil9" points="2772.81,4970.64 2772.25,4947.59 5617.66,4877.83 5618.22,4900.88 "/>
    <polygon id="_32" class="fil9" points="2772.44,4955.27 2771.87,4932.22 5617.28,4862.46 5617.84,4885.51 "/>
    <polygon id="_33" class="fil10" points="2772.06,4939.9 2771.5,4916.85 5616.9,4847.1 5617.47,4870.14 "/>
    <polygon id="_34" class="fil11" points="2771.68,4924.54 2771.12,4901.49 5616.53,4831.73 5617.09,4854.78 "/>
    <polygon id="_35" class="fil11" points="2771.31,4909.17 2770.74,4886.12 5616.15,4816.36 5616.71,4839.41 "/>
    <polygon id="_36" class="fil12" points="2770.93,4893.81 2770.37,4870.76 5615.77,4801 5616.34,4824.05 "/>
    <polygon id="_37" class="fil12" points="2770.55,4878.44 2769.99,4855.39 5615.4,4785.63 5615.96,4808.68 "/>
    <polygon id="_38" class="fil13" points="2770.18,4863.07 2769.61,4840.03 5615.02,4770.27 5615.58,4793.32 "/>
    <polygon id="_39" class="fil14" points="2769.8,4847.71 2769.24,4824.66 5614.64,4754.9 5615.21,4777.95 "/>
    <polygon id="_40" class="fil14" points="2769.42,4832.34 2768.86,4809.29 5614.27,4739.53 5614.83,4762.58 "/>
    <polygon id="_41" class="fil15" points="2769.05,4816.98 2768.48,4793.93 5613.89,4724.17 5614.45,4747.22 "/>
    <polygon id="_42" class="fil16" points="2768.67,4801.61 2768.1,4778.56 5613.51,4708.8 5614.08,4731.85 "/>
    <polygon id="_43" class="fil16" points="2768.29,4786.24 2767.73,4763.2 5613.14,4693.44 5613.7,4716.49 "/>
    <polygon id="_44" class="fil17" points="2767.92,4770.88 2767.35,4747.83 5612.76,4678.07 5613.32,4701.12 "/>
    <polygon id="_45" class="fil17" points="2767.54,4755.51 2766.97,4732.46 5612.38,4662.71 5612.95,4685.75 "/>
    <polygon id="_46" class="fil17" points="2767.16,4740.15 2766.6,4717.1 5612,4647.34 5612.57,4670.39 "/>
    <polygon id="_47" class="fil18" points="2766.79,4724.78 2766.22,4701.73 5611.63,4631.97 5612.19,4655.02 "/>
    <polygon id="_48" class="fil19" points="2766.41,4709.41 2765.84,4686.37 5611.25,4616.61 5611.82,4639.66 "/>
    <polygon id="_49" class="fil20" points="2766.03,4694.05 2765.47,4671 5610.87,4601.24 5611.44,4624.29 "/>
    <polygon id="_50" class="fil21" points="2765.66,4678.68 2765.09,4655.63 5610.5,4585.88 5611.06,4608.92 "/>
    <polygon id="_51" class="fil22" points="2765.28,4663.32 2764.71,4640.27 5610.12,4570.51 5610.69,4593.56 "/>
    <polygon id="_52" class="fil22" points="2764.9,4647.95 2764.34,4624.9 5609.74,4555.14 5610.31,4578.19 "/>
    <polygon id="_53" class="fil23" points="2764.53,4632.59 2763.96,4609.54 5609.37,4539.78 5609.93,4562.83 "/>
    <polygon id="_54" class="fil23" points="2764.15,4617.22 2763.58,4594.17 5608.99,4524.41 5609.56,4547.46 "/>
    <polygon id="_55" class="fil24" points="2763.77,4601.85 2763.21,4578.8 5608.61,4509.05 5609.18,4532.09 "/>
    <polygon id="_56" class="fil25" points="2763.4,4586.49 2762.83,4563.44 5608.24,4493.68 5608.8,4516.73 "/>
    <polygon id="_57" class="fil26" points="2763.02,4571.12 2762.45,4548.07 5607.86,4478.31 5608.43,4501.36 "/>
    <polygon id="_58" class="fil27" points="2762.64,4555.76 2762.08,4532.71 5607.48,4462.95 5608.05,4486 "/>
    <polygon id="_59" class="fil28" points="2762.27,4540.39 2761.7,4517.34 5607.11,4447.58 5607.67,4470.63 "/>
    <polygon id="_60" class="fil28" points="2761.89,4525.02 2761.32,4501.97 5606.73,4432.22 5607.3,4455.27 "/>
    <polygon id="_61" class="fil29" points="2761.51,4509.66 2760.95,4486.61 5606.35,4416.85 5606.92,4439.9 "/>
    <polygon id="_62" class="fil29" points="2761.14,4494.29 2760.57,4471.24 5605.98,4401.48 5606.54,4424.53 "/>
    <polygon id="_63" class="fil30" points="2760.76,4478.93 2760.19,4455.88 5605.6,4386.12 5606.17,4409.17 "/>
    <polygon id="_64" class="fil30" points="2760.38,4463.56 2759.82,4440.51 5605.22,4370.75 5605.79,4393.8 "/>
    <polygon id="_65" class="fil31" points="2760.01,4448.19 2759.44,4425.15 5604.85,4355.39 5605.41,4378.44 "/>
    <polygon id="_66" class="fil32" points="2759.63,4432.83 2759.06,4409.78 5604.47,4340.02 5605.04,4363.07 "/>
    <polygon id="_67" class="fil33" points="2759.25,4417.46 2758.69,4394.41 5604.09,4324.65 5604.66,4347.7 "/>
    <polygon id="_68" class="fil34" points="2758.88,4402.1 2758.31,4379.05 5603.72,4309.29 5604.28,4332.34 "/>
    <polygon id="_69" class="fil35" points="2758.5,4386.73 2757.93,4363.68 5603.34,4293.92 5603.91,4316.97 "/>
    <polygon id="_70" class="fil36" points="2758.12,4371.36 2757.56,4348.32 5602.96,4278.56 5603.53,4301.61 "/>
    <polygon id="_71" class="fil36" points="2757.75,4356 2757.18,4332.95 5602.59,4263.19 5603.15,4286.24 "/>
    <polygon id="_72" class="fil37" points="2757.37,4340.63 2756.8,4317.58 5602.21,4247.83 5602.78,4270.87 "/>
    <polygon id="_73" class="fil38" points="2756.99,4325.27 2756.43,4302.22 5601.83,4232.46 5602.4,4255.51 "/>
    <polygon id="_74" class="fil39" points="2756.62,4309.9 2756.05,4286.85 5601.46,4217.09 5602.02,4240.14 "/>
    <polygon id="_75" class="fil40" points="2756.24,4294.54 2755.67,4271.49 5601.08,4201.73 5601.65,4224.78 "/>
    <polygon id="_76" class="fil41" points="2755.86,4279.17 2755.3,4256.12 5600.7,4186.36 5601.27,4209.41 "/>
    <polygon id="_77" class="fil42" points="2755.48,4263.8 2754.92,4240.75 5600.33,4171 5600.89,4194.04 "/>
    <polygon id="_78" class="fil42" points="2755.11,4248.44 2754.54,4225.39 5599.95,4155.63 5600.52,4178.68 "/>
    <polygon id="_79" class="fil43" points="2754.73,4233.07 2754.17,4210.02 5599.57,4140.26 5600.14,4163.31 "/>
    <polygon id="_80" class="fil43" points="2754.35,4217.71 2753.79,4194.66 5599.2,4124.9 5599.76,4147.95 "/>
    <polygon id="_81" class="fil44" points="2753.98,4202.34 2753.41,4179.29 5598.82,4109.53 5599.38,4132.58 "/>
    <polygon id="_82" class="fil45" points="2753.6,4186.97 2753.04,4163.92 5598.44,4094.17 5599.01,4117.21 "/>
    <polygon id="_83" class="fil46" points="2753.22,4171.61 2752.66,4148.56 5598.07,4078.8 5598.63,4101.85 "/>
    <polygon id="_84" class="fil47" points="2752.85,4156.24 2752.28,4133.19 5597.69,4063.43 5598.25,4086.48 "/>
    <polygon id="_85" class="fil48" points="2752.47,4140.88 2751.91,4117.83 5597.31,4048.07 5597.88,4071.12 "/>
    <polygon id="_86" class="fil48" points="2752.09,4125.51 2751.53,4102.46 5596.94,4032.7 5597.5,4055.75 "/>
    <polygon id="_87" class="fil49" points="2751.72,4110.14 2751.15,4087.1 5596.56,4017.34 5597.12,4040.39 "/>
    <polygon id="_88" class="fil50" points="2751.34,4094.78 2750.78,4071.73 5596.18,4001.97 5596.75,4025.02 "/>
    <polygon id="_89" class="fil51" points="2750.96,4079.41 2750.4,4056.36 5595.81,3986.6 5596.37,4009.65 "/>
    <polygon id="_90" class="fil52" points="2750.59,4064.05 2750.02,4041 5595.43,3971.24 5595.99,3994.29 "/>
    <polygon id="_91" class="fil53" points="2750.21,4048.68 2749.65,4025.63 5595.05,3955.87 5595.62,3978.92 "/>
    <polygon id="_92" class="fil53" points="2749.83,4033.31 2749.27,4010.27 5594.68,3940.51 5595.24,3963.56 "/>
    <polygon id="_93" class="fil54" points="2749.46,4017.95 2748.89,3994.9 5594.3,3925.14 5594.86,3948.19 "/>
    <polygon id="_94" class="fil55" points="2749.08,4002.58 2748.52,3979.53 5593.92,3909.78 5594.49,3932.82 "/>
    <polygon id="_95" class="fil56" points="2748.7,3987.22 2748.14,3964.17 5593.55,3894.41 5594.11,3917.46 "/>
    <polygon id="_96" class="fil57" points="2748.33,3971.85 2747.76,3948.8 5593.17,3879.04 5593.73,3902.09 "/>
    <polygon id="_97" class="fil58" points="2747.95,3956.48 2747.39,3933.44 5592.79,3863.68 5593.36,3886.73 "/>
    <polygon id="_98" class="fil58" points="2747.57,3941.12 2747.01,3918.07 5592.42,3848.31 5592.98,3871.36 "/>
    <polygon id="_99" class="fil59" points="2747.2,3925.75 2746.63,3902.7 5592.04,3832.95 5592.6,3855.99 "/>
    <polygon id="_100" class="fil60" points="2746.82,3910.39 2746.26,3887.34 5591.66,3817.58 5592.23,3840.63 "/>
    <polygon id="_101" class="fil61" points="2746.44,3895.02 2745.88,3871.97 5591.29,3802.21 5591.85,3825.26 "/>
    <polygon id="_102" class="fil62" points="2746.07,3879.66 2745.5,3856.61 5590.91,3786.85 5591.47,3809.9 "/>
    <polygon id="_103" class="fil63" points="2745.69,3864.29 2745.13,3841.24 5590.53,3771.48 5591.1,3794.53 "/>
    <polygon id="_104" class="fil64" points="2745.31,3848.92 2744.75,3825.87 5590.16,3756.12 5590.72,3779.16 "/>
    <polygon id="_105" class="fil65" points="2744.94,3833.56 2744.37,3810.51 5589.78,3740.75 5590.34,3763.8 "/>
    <polygon id="_106" class="fil66" points="2744.56,3818.19 2744,3795.14 5589.4,3725.38 5589.97,3748.43 "/>
    <polygon id="_107" class="fil66" points="2744.18,3802.83 2743.62,3779.78 5589.03,3710.02 5589.59,3733.07 "/>
    <polygon id="_108" class="fil67" points="2743.81,3787.46 2743.24,3764.41 5588.65,3694.65 5589.21,3717.7 "/>
    <polygon id="_109" class="fil68" points="2743.43,3772.09 2742.86,3749.04 5588.27,3679.29 5588.84,3702.34 "/>
    <polygon id="_110" class="fil69" points="2743.05,3756.73 2742.49,3733.68 5587.9,3663.92 5588.46,3686.97 "/>
    <polygon id="_111" class="fil69" points="2742.68,3741.36 2742.11,3718.31 5587.52,3648.55 5588.08,3671.6 "/>
    <polygon id="_112" class="fil70" points="2742.3,3726 2741.73,3702.95 5587.14,3633.19 5587.71,3656.24 "/>
    <polygon id="_113" class="fil71" points="2741.92,3710.63 2741.36,3687.58 5586.76,3617.82 5587.33,3640.87 "/>
    <polygon id="_114" class="fil72" points="2741.55,3695.26 2740.98,3672.22 5586.39,3602.46 5586.95,3625.51 "/>
    <polygon id="_115" class="fil73" points="2741.17,3679.9 2740.6,3656.85 5586.01,3587.09 5586.58,3610.14 "/>
    <polygon id="_116" class="fil74" points="2740.79,3664.53 2740.23,3641.48 5585.63,3571.72 5586.2,3594.77 "/>
    <polygon id="_117" class="fil75" points="2740.42,3649.17 2739.85,3626.12 5585.26,3556.36 5585.82,3579.41 "/>
    <polygon id="_118" class="fil76" points="2740.04,3633.8 2739.47,3610.75 5584.88,3540.99 5585.45,3564.04 "/>
    <polygon id="_119" class="fil77" points="2739.66,3618.43 2739.1,3595.39 5584.5,3525.63 5585.07,3548.68 "/>
    <polygon id="_120" class="fil78" points="2739.29,3603.07 2738.72,3580.02 5584.13,3510.26 5584.69,3533.31 "/>
    <polygon id="_121" class="fil79" points="2738.91,3587.7 2738.34,3564.65 5583.75,3494.9 5584.32,3517.94 "/>
    <polygon id="_122" class="fil80" points="2738.53,3572.34 2737.97,3549.29 5583.37,3479.53 5583.94,3502.58 "/>
    <polygon id="_123" class="fil81" points="2738.16,3556.97 2737.59,3533.92 5583,3464.16 5583.56,3487.21 "/>
    <polygon id="_124" class="fil82" points="2737.78,3541.61 2737.21,3518.56 5582.62,3448.8 5583.19,3471.85 "/>
    <polygon id="_125" class="fil83" points="2737.4,3526.24 2736.84,3503.19 5582.24,3433.43 5582.81,3456.48 "/>
    <polygon id="_126" class="fil84" points="2737.03,3510.87 2736.46,3487.82 5581.87,3418.07 5582.43,3441.11 "/>
    <polygon id="_127" class="fil85" points="2736.65,3495.51 2736.08,3472.46 5581.49,3402.7 5582.06,3425.75 "/>
    <polygon id="_128" class="fil86" points="2736.27,3480.14 2735.71,3457.09 5581.11,3387.33 5581.68,3410.38 "/>
    <polygon id="_129" class="fil87" points="2735.9,3464.78 2735.33,3441.73 5580.74,3371.97 5581.3,3395.02 "/>
    <polygon id="_130" class="fil88" points="2735.52,3449.41 2734.95,3426.36 5580.36,3356.6 5580.93,3379.65 "/>
    <polygon id="_131" class="fil89" points="2735.14,3434.04 2734.58,3410.99 5579.98,3341.24 5580.55,3364.28 "/>
    <polygon id="_132" class="fil90" points="2734.77,3418.68 2734.2,3395.63 5579.61,3325.87 5580.17,3348.92 "/>
    <polygon id="_133" class="fil91" points="2734.39,3403.31 2733.82,3380.26 5579.23,3310.5 5579.8,3333.55 "/>
    <polygon id="_134" class="fil92" points="2734.01,3387.95 2733.45,3364.9 5578.85,3295.14 5579.42,3318.19 "/>
    <polygon id="_135" class="fil93" points="2733.64,3372.58 2733.07,3349.53 5578.48,3279.77 5579.04,3302.82 "/>
    <polygon id="_136" class="fil94" points="2733.26,3357.21 2732.69,3334.17 5578.1,3264.41 5578.67,3287.46 "/>
    <polygon id="_137" class="fil95" points="2732.88,3341.85 2732.32,3318.8 5577.72,3249.04 5578.29,3272.09 "/>
    <polygon id="_138" class="fil96" points="2732.51,3326.48 2731.94,3303.43 5577.35,3233.67 5577.91,3256.72 "/>
    <polygon id="_139" class="fil97" points="2732.13,3311.12 2731.56,3288.07 5576.97,3218.31 5577.54,3241.36 "/>
    <polygon id="_140" class="fil98" points="2731.75,3295.75 2731.19,3272.7 5576.59,3202.94 5577.16,3225.99 "/>
    <polygon id="_141" class="fil99" points="2731.38,3280.38 2730.81,3257.34 5576.22,3187.58 5576.78,3210.63 "/>
    <polygon id="_142" class="fil100" points="2731,3265.02 2730.43,3241.97 5575.84,3172.21 5576.41,3195.26 "/>
    <polygon id="_143" class="fil101" points="2730.62,3249.65 2730.06,3226.6 5575.46,3156.84 5576.03,3179.89 "/>
    <polygon id="_144" class="fil102" points="2730.25,3234.29 2729.68,3211.24 5575.09,3141.48 5575.65,3164.53 "/>
    <polygon id="_145" class="fil102" points="2729.87,3218.92 2729.3,3195.87 5574.71,3126.11 5575.28,3149.16 "/>
    <polygon id="_146" class="fil103" points="2729.49,3203.55 2728.93,3180.51 5574.33,3110.75 5574.9,3133.8 "/>
    <polygon id="_147" class="fil104" points="2729.11,3188.19 2728.55,3165.14 5573.96,3095.38 5574.52,3118.43 "/>
    <polygon id="_148" class="fil105" points="2728.74,3172.82 2728.17,3149.77 5573.58,3080.02 5574.15,3103.06 "/>
    <polygon id="_149" class="fil105" points="2728.36,3157.46 2727.8,3134.41 5573.2,3064.65 5573.77,3087.7 "/>
    <polygon id="_150" class="fil106" points="2727.98,3142.09 2727.42,3119.04 5572.83,3049.28 5573.39,3072.33 "/>
    <polygon id="_151" class="fil107" points="2727.61,3126.73 2727.04,3103.68 5572.45,3033.92 5573.01,3056.97 "/>
    <polygon id="_152" class="fil108" points="2727.23,3111.36 2726.67,3088.31 5572.07,3018.55 5572.64,3041.6 "/>
    <polygon id="_153" class="fil109" points="2726.85,3095.99 2726.29,3072.94 5571.7,3003.19 5572.26,3026.23 "/>
    <polygon id="_154" class="fil110" points="2726.48,3080.63 2725.91,3057.58 5571.32,2987.82 5571.88,3010.87 "/>
    <polygon id="_155" class="fil111" points="2726.1,3065.26 2725.54,3042.21 5570.94,2972.45 5571.51,2995.5 "/>
    <polygon id="_156" class="fil112" points="2725.72,3049.9 2725.16,3026.85 5570.57,2957.09 5571.13,2980.14 "/>
    <polygon id="_157" class="fil113" points="2725.35,3034.53 2724.78,3011.48 5570.19,2941.72 5570.75,2964.77 "/>
    <polygon id="_158" class="fil113" points="2724.97,3019.16 2724.41,2996.11 5569.81,2926.36 5570.38,2949.41 "/>
    <polygon id="_159" class="fil114" points="2724.59,3003.8 2724.03,2980.75 5569.44,2910.99 5570,2934.04 "/>
    <polygon id="_160" class="fil115" points="2724.22,2988.43 2723.65,2965.38 5569.06,2895.62 5569.62,2918.67 "/>
    <polygon id="_161" class="fil116" points="2723.84,2973.07 2723.28,2950.02 5568.68,2880.26 5569.25,2903.31 "/>
    <polygon id="_162" class="fil117" points="2723.46,2957.7 2722.9,2934.65 5568.31,2864.89 5568.87,2887.94 "/>
    <polygon id="_163" class="fil118" points="2723.09,2942.33 2722.52,2919.29 5567.93,2849.53 5568.49,2872.58 "/>
    <polygon id="_164" class="fil118" points="2722.71,2926.97 2722.15,2903.92 5567.55,2834.16 5568.12,2857.21 "/>
    <polygon id="_165" class="fil119" points="2722.33,2911.6 2721.77,2888.55 5567.18,2818.79 5567.74,2841.84 "/>
    <polygon id="_166" class="fil120" points="2721.96,2896.24 2721.39,2873.19 5566.8,2803.43 5567.36,2826.48 "/>
    <polygon id="_167" class="fil121" points="2721.58,2880.87 2721.02,2857.82 5566.42,2788.06 5566.99,2811.11 "/>
    <polygon id="_168" class="fil122" points="2721.2,2865.5 2720.64,2842.46 5566.05,2772.7 5566.61,2795.75 "/>
    <polygon id="_169" class="fil123" points="2720.83,2850.14 2720.26,2827.09 5565.67,2757.33 5566.23,2780.38 "/>
    <polygon id="_170" class="fil123" points="2720.45,2834.77 2719.89,2811.72 5565.29,2741.97 5565.86,2765.01 "/>
    <polygon id="_171" class="fil124" points="2720.07,2819.41 2719.51,2796.36 5564.92,2726.6 5565.48,2749.65 "/>
    <polygon id="_172" class="fil125" points="2719.7,2804.04 2719.13,2780.99 5564.54,2711.23 5565.1,2734.28 "/>
    <polygon id="_173" class="fil126" points="2719.32,2788.68 2718.76,2765.63 5564.16,2695.87 5564.73,2718.92 "/>
    <polygon id="_174" class="fil127" points="2718.94,2773.31 2718.38,2750.26 5563.79,2680.5 5564.35,2703.55 "/>
    <polygon id="_175" class="fil128" points="2718.57,2757.94 2718,2734.89 5563.41,2665.14 5563.97,2688.18 "/>
    <polygon id="_176" class="fil128" points="2718.19,2742.58 2717.63,2719.53 5563.03,2649.77 5563.6,2672.82 "/>
    <polygon id="_177" class="fil129" points="2717.81,2727.21 2717.25,2704.16 5562.66,2634.4 5563.22,2657.45 "/>
    <polygon id="_178" class="fil129" points="2717.44,2711.85 2716.87,2688.8 5562.28,2619.04 5562.84,2642.09 "/>
    <polygon id="_179" class="fil130" points="2717.06,2696.48 2716.49,2673.43 5561.9,2603.67 5562.47,2626.72 "/>
    <polygon id="_180" class="fil131" points="2716.68,2681.11 2716.12,2658.06 5561.53,2588.31 5562.09,2611.35 "/>
    <polygon id="_181" class="fil132" points="2716.31,2665.75 2715.74,2642.7 5561.15,2572.94 5561.71,2595.99 "/>
    <polygon id="_182" class="fil133" points="2715.93,2650.38 2715.36,2627.33 5560.77,2557.57 5561.34,2580.62 "/>
    <polygon id="_183" class="fil134" points="2715.55,2635.02 2714.99,2611.97 5560.39,2542.21 5560.96,2565.26 "/>
    <polygon id="_184" class="fil135" points="2715.18,2619.65 2714.61,2596.6 5560.02,2526.84 5560.58,2549.89 "/>
    <polygon id="_185" class="fil135" points="2714.8,2604.28 2714.23,2581.24 5559.64,2511.48 5560.21,2534.53 "/>
    <polygon id="_186" class="fil136" points="2714.42,2588.92 2713.86,2565.87 5559.26,2496.11 5559.83,2519.16 "/>
    <polygon id="_187" class="fil137" points="2714.05,2573.55 2713.48,2550.5 5558.89,2480.74 5559.45,2503.79 "/>
    <polygon id="_188" class="fil138" points="2713.67,2558.19 2713.1,2535.14 5558.51,2465.38 5559.08,2488.43 "/>
    <polygon id="_189" class="fil139" points="2713.29,2542.82 2712.73,2519.77 5558.13,2450.01 5558.7,2473.06 "/>
    <polygon id="_190" class="fil140" points="2712.92,2527.45 2712.35,2504.41 5557.76,2434.65 5558.32,2457.7 "/>
    <polygon id="_191" class="fil141" points="2712.54,2512.09 2711.97,2489.04 5557.38,2419.28 5557.95,2442.33 "/>
    <polygon id="_192" class="fil141" points="2712.16,2496.72 2711.6,2473.67 5557,2403.91 5557.57,2426.96 "/>
    <polygon id="_193" class="fil142" points="2711.79,2481.36 2711.22,2458.31 5556.63,2388.55 5557.19,2411.6 "/>
    <polygon id="_194" class="fil142" points="2711.41,2465.99 2710.84,2442.94 5556.25,2373.18 5556.82,2396.23 "/>
    <polygon id="_195" class="fil143" points="2711.03,2450.62 2710.47,2427.58 5555.87,2357.82 5556.44,2380.87 "/>
    <polygon id="_196" class="fil143" points="2710.66,2435.26 2710.09,2412.21 5555.5,2342.45 5556.06,2365.5 "/>
    <polygon id="_197" class="fil144" points="2710.28,2419.89 2709.71,2396.84 5555.12,2327.09 5555.69,2350.13 "/>
    <polygon id="_198" class="fil145" points="2709.9,2404.53 2709.34,2381.48 5554.74,2311.72 5555.31,2334.77 "/>
    <polygon id="_199" class="fil146" points="2709.53,2389.16 2708.96,2366.11 5554.37,2296.35 5554.93,2319.4 "/>
    <polygon id="_200" class="fil147" points="2709.15,2373.8 2708.58,2350.75 5553.99,2280.99 5554.56,2304.04 "/>
    <polygon id="_201" class="fil148" points="2708.77,2358.43 2708.21,2335.38 5553.61,2265.62 5554.18,2288.67 "/>
    <polygon id="_202" class="fil148" points="2708.4,2343.06 2707.83,2320.01 5553.24,2250.26 5553.8,2273.3 "/>
    <polygon id="_203" class="fil149" points="2708.02,2327.7 2707.45,2304.65 5552.86,2234.89 5553.43,2257.94 "/>
    <polygon id="_204" class="fil149" points="2707.64,2312.33 2707.08,2289.28 5552.48,2219.52 5553.05,2242.57 "/>
    <polygon id="_205" class="fil150" points="2707.27,2296.97 2706.7,2273.92 5552.11,2204.16 5552.67,2227.21 "/>
    <polygon id="_206" class="fil151" points="2706.89,2281.6 2706.32,2258.55 5551.73,2188.79 5552.3,2211.84 "/>
    <polygon id="_207" class="fil152" points="2706.51,2266.23 2705.95,2243.18 5551.35,2173.43 5551.92,2196.48 "/>
    <polygon id="_208" class="fil153" points="2706.14,2250.87 2705.57,2227.82 5550.98,2158.06 5551.54,2181.11 "/>
    <polygon id="_209" class="fil154" points="2705.76,2235.5 2705.19,2212.45 5550.6,2142.69 5551.17,2165.74 "/>
    <polygon id="_210" class="fil154" points="2705.38,2220.14 2704.82,2197.09 5550.22,2127.33 5550.79,2150.38 "/>
    <polygon id="_211" class="fil154" points="2705.01,2204.77 2704.44,2181.72 5549.85,2111.96 5550.41,2135.01 "/>
    <polygon id="_212" class="fil155" points="2704.63,2189.4 2704.06,2166.36 5549.47,2096.6 5550.04,2119.65 "/>
    <polygon id="_213" class="fil155" points="2704.25,2174.04 2703.69,2150.99 5549.09,2081.23 5549.66,2104.28 "/>
    <polygon id="_214" class="fil156" points="2703.87,2158.67 2703.31,2135.62 5548.72,2065.86 5549.28,2088.91 "/>
    <polygon id="_215" class="fil157" points="2703.5,2143.31 2702.93,2120.26 5548.34,2050.5 5548.91,2073.55 "/>
    <polygon id="_216" class="fil157" points="2703.12,2127.94 2702.56,2104.89 5547.96,2035.13 5548.53,2058.18 "/>
    <polygon id="_217" class="fil158" points="2702.74,2112.57 2702.18,2089.53 5547.59,2019.77 5548.15,2042.82 "/>
    <polygon id="_218" class="fil159" points="2702.37,2097.21 2701.8,2074.16 5547.21,2004.4 5547.77,2027.45 "/>
    <polygon id="_219" class="fil159" points="2701.99,2081.84 2701.43,2058.79 5546.83,1989.04 5547.4,2012.08 "/>
    <polygon id="_220" class="fil160" points="2701.61,2066.48 2701.05,2043.43 5546.46,1973.67 5547.02,1996.72 "/>
    <polygon id="_221" class="fil160" points="2701.24,2051.11 2700.67,2028.06 5546.08,1958.3 5546.64,1981.35 "/>
    <polygon id="_222" class="fil161" points="2700.86,2035.75 2700.3,2012.7 5545.7,1942.94 5546.27,1965.99 "/>
    <polygon id="_223" class="fil162" points="2700.48,2020.38 2699.92,1997.33 5545.33,1927.57 5545.89,1950.62 "/>
    <polygon id="_224" class="fil162" points="2700.11,2005.01 2699.54,1981.96 5544.95,1912.21 5545.51,1935.25 "/>
    <polygon id="_225" class="fil162" points="2699.73,1989.65 2699.17,1966.6 5544.57,1896.84 5545.14,1919.89 "/>
    <polygon id="_226" class="fil163" points="2699.35,1974.28 2698.79,1951.23 5544.2,1881.47 5544.76,1904.52 "/>
    <polygon id="_227" class="fil163" points="2698.98,1958.92 2698.41,1935.87 5543.82,1866.11 5544.38,1889.16 "/>
    <polygon id="_228" class="fil163" points="2698.6,1943.55 2698.04,1920.5 5543.44,1850.74 5544.01,1873.79 "/>
    <polygon id="_229" class="fil163" points="2698.22,1928.18 2697.66,1905.13 5543.07,1835.38 5543.63,1858.42 "/>
    <polygon id="_230" class="fil164" points="2697.85,1912.82 2697.28,1889.77 5542.69,1820.01 5543.25,1843.06 "/>
    <polygon id="_231" class="fil165" points="2697.47,1897.45 2696.91,1874.4 5542.31,1804.64 5542.88,1827.69 "/>
    <polygon id="_232" class="fil165" points="2697.09,1882.09 2696.53,1859.04 5541.94,1789.28 5542.5,1812.33 "/>
    <polygon id="_233" class="fil165" points="2696.72,1866.72 2696.15,1843.67 5541.56,1773.91 5542.12,1796.96 "/>
    <polygon id="_234" class="fil166" points="2696.34,1851.35 2695.78,1828.31 5541.18,1758.55 5541.75,1781.6 "/>
    <polygon id="_235" class="fil166" points="2695.96,1835.99 2695.4,1812.94 5540.81,1743.18 5541.37,1766.23 "/>
    <polygon id="_236" class="fil166" points="2695.59,1820.62 2695.02,1797.57 5540.43,1727.81 5540.99,1750.86 "/>
    <polygon id="_237" class="fil167" points="2695.21,1805.26 2694.65,1782.21 5540.05,1712.45 5540.62,1735.5 "/>
    <polygon id="_238" class="fil167" points="2694.83,1789.89 2694.27,1766.84 5539.68,1697.08 5540.24,1720.13 "/>
    <polygon id="_239" class="fil168" points="2694.46,1774.52 2693.89,1751.48 5539.3,1681.72 5539.86,1704.77 "/>
    <polygon id="_240" class="fil168" points="2694.08,1759.16 2693.52,1736.11 5538.92,1666.35 5539.49,1689.4 "/>
    <polygon id="_241" class="fil168" points="2693.7,1743.79 2693.14,1720.74 5538.55,1650.98 5539.11,1674.03 "/>
    <polygon id="_242" class="fil168" points="2693.33,1728.43 2692.76,1705.38 5538.17,1635.62 5538.73,1658.67 "/>
    <polygon id="_243" class="fil168" points="2692.95,1713.06 2692.39,1690.01 5537.79,1620.25 5538.36,1643.3 "/>
    <polygon id="_244" class="fil168" points="2692.57,1697.69 2692.01,1674.65 5537.42,1604.89 5537.98,1627.94 "/>
    <polygon id="_245" class="fil169" points="2692.2,1682.33 2691.63,1659.28 5537.04,1589.52 5537.6,1612.57 "/>
    <polygon id="_246" class="fil170" points="2691.82,1666.96 2691.26,1643.91 5536.66,1574.16 5537.23,1597.2 "/>
    <polygon id="_247" class="fil170" points="2691.44,1651.6 2690.88,1628.55 5536.29,1558.79 5536.85,1581.84 "/>
    <polygon id="_248" class="fil170" points="2691.07,1636.23 2690.5,1613.18 5535.91,1543.42 5536.47,1566.47 "/>
    <polygon id="_249" class="fil170" points="2690.69,1620.87 2690.12,1597.82 5535.53,1528.06 5536.1,1551.11 "/>
    <polygon id="_250" class="fil170" points="2690.31,1605.5 2689.75,1582.45 5535.16,1512.69 5535.72,1535.74 "/>
    <polygon id="_251" class="fil170" points="2689.94,1590.13 2689.37,1567.08 5534.78,1497.33 5535.34,1520.37 "/>
    <polygon id="_252" class="fil170" points="2689.56,1574.77 2688.99,1551.72 5534.4,1481.96 5534.97,1505.01 "/>
    <polygon id="_253" class="fil170" points="2689.18,1559.4 2688.62,1536.35 5534.02,1466.59 5534.59,1489.64 "/>
    <polygon id="_254" class="fil170" points="2688.81,1544.04 2688.24,1520.99 5533.65,1451.23 5534.21,1474.28 "/>
    <polygon id="_255" class="fil170" points="2688.43,1528.67 2687.49,1490.18 5532.89,1420.42 5533.84,1458.91 "/>
   </g>
  </g>
  <path class="fil171" d="M1201.6 5430.14c28.46,0 51.22,13.55 59.35,40.11l21.14 0c-7.59,-35.23 -39.3,-58.54 -80.22,-58.54 -55.56,0 -93.5,41.74 -93.5,101.09 0,59.89 37.94,99.46 92.96,99.46 31.44,0 55.83,-14.63 66.13,-33.87l1.89 30.89 15.45 0 0 -105.15 -88.62 0 0 17.34 70.19 0 0 10.03c0,46.61 -31.71,62.33 -64.23,62.33 -43.63,0 -73.44,-30.62 -73.44,-81.03 0,-49.59 28.18,-82.66 72.9,-82.66zm172.91 182.12c30.89,0 51.22,-14.9 58.26,-42.55l-17.88 0c-4.88,17.35 -18.7,26.56 -40.11,26.56 -28.19,0 -44.99,-18.43 -46.34,-50.41l104.33 0 0 -9.21c0,-37.13 -24.11,-62.33 -59.62,-62.33 -37.4,0 -62.87,28.18 -62.87,69.11 0,41.19 25.74,68.83 64.23,68.83zm-1.36 -121.95c24.66,0 40.93,16.8 40.93,42l-85.1 0c3.25,-25.74 19.51,-42 44.17,-42zm78.32 81.84c0,24.39 18.43,40.11 47.97,40.11 29.81,0 49.87,-15.45 49.87,-39.02 0,-18.97 -10.3,-29.54 -33.07,-35.23l-22.49 -5.7c-14.36,-3.52 -21.41,-10.57 -21.41,-20.59 0,-14.1 10.3,-21.95 28.73,-21.95 17.61,0 28.18,8.94 28.72,24.12l18.16 0c-0.81,-24.4 -18.7,-39.57 -46.34,-39.57 -28.19,0 -47.43,14.63 -47.43,37.67 0,17.89 11.11,29.81 33.88,35.5l22.49 5.69c15.45,3.8 20.87,10.03 20.87,20.87 0,14.09 -11.93,22.76 -32.25,22.76 -18.43,0 -29.81,-9.48 -29.81,-24.66l-17.89 0zm158.81 36.86l0 -115.45 26.29 0 0 -15.72 -26.29 0 0 -41.46 -18.42 0 0 41.46 -26.29 0 0 15.72 26.29 0 0 115.45 18.42 0zm76.7 -150.95c0,-9.49 2.98,-14.64 8.67,-14.64 9.21,0 16.26,14.64 31.71,14.64 14.36,0 22.22,-10.03 21.41,-28.73l-13.28 0c0,9.76 -2.71,14.63 -9.22,14.63 -11.11,0 -18.15,-14.63 -33.06,-14.63 -13.01,0 -20.87,10.84 -19.78,28.73l13.55 0zm9.48 154.2c22.23,0 40.11,-9.75 48.24,-26.29l2.44 23.04 15.72 0 0 -84.83c0,-34.69 -22.22,-49.86 -52.58,-49.86 -32.25,0 -53.93,17.07 -53.93,43.63l17.08 0c0,-17.62 13.55,-27.91 36.31,-27.91 19.24,0 34.69,8.13 34.69,33.87l0 4.34 -43.36 3.52c-30.62,2.44 -49.05,17.62 -49.05,41.74 0,23.03 16.53,38.75 44.44,38.75zm4.34 -15.17c-17.89,0 -29.81,-8.13 -29.81,-24.12 0,-14.64 10.03,-25.48 34.69,-27.65l38.75 -2.98 0 7.05c0,28.45 -15.99,47.7 -43.63,47.7zm90.25 -53.66c0,39.83 28.18,68.83 66.67,68.83 38.48,0 66.67,-29 66.67,-68.83 0,-40.11 -28.19,-69.11 -66.67,-69.11 -38.49,0 -66.67,29 -66.67,69.11zm18.97 -0.28c0,-30.35 19.51,-52.03 47.7,-52.03 27.91,0 47.69,21.68 47.69,52.03 0,30.9 -19.78,52.31 -47.69,52.31 -28.19,0 -47.7,-21.41 -47.7,-52.31zm305.69 65.86l18.7 0 0 -131.17 -81.03 0 0 -25.47c0,-15.45 4.34,-23.58 20.06,-23.58l11.38 0 0 -16.26c-4.34,-0.82 -10.03,-1.09 -14.63,-1.09 -19.52,0 -35.51,11.39 -35.51,40.93l0 25.47 -20.05 0 0 15.72 20.05 0 0 115.45 18.7 0 0 -115.45 62.33 0 0 115.45zm9.22 -168.57c7.32,0 13.01,-5.42 13.01,-13.01 0,-7.58 -5.69,-13.28 -13.01,-13.28 -7.59,0 -13.01,5.7 -13.01,13.28 0,7.59 5.42,13.01 13.01,13.01zm66.39 168.57l0 -68.57c0,-29.54 15.18,-49.05 42.01,-49.05 21.68,0 35.5,10.84 35.5,41.47l0 76.15 18.7 0 0 -80.22c0,-33.06 -14.9,-54.47 -50.95,-54.47 -18.97,0 -36.31,9.48 -44.99,26.29l-2.71 -22.77 -16.26 0 0 131.17 18.7 0zm171.28 3.25c22.23,0 40.11,-9.75 48.24,-26.29l2.44 23.04 15.72 0 0 -84.83c0,-34.69 -22.22,-49.86 -52.58,-49.86 -32.25,0 -53.93,17.07 -53.93,43.63l17.08 0c0,-17.62 13.55,-27.91 36.31,-27.91 19.24,0 34.69,8.13 34.69,33.87l0 4.34 -43.36 3.52c-30.62,2.44 -49.05,17.62 -49.05,41.74 0,23.03 16.53,38.75 44.44,38.75zm4.34 -15.17c-17.89,0 -29.81,-8.13 -29.81,-24.12 0,-14.64 10.03,-25.48 34.69,-27.65l38.75 -2.98 0 7.05c0,28.45 -15.99,47.7 -43.63,47.7zm118.16 11.92l0 -68.57c0,-29.54 15.18,-49.05 42.01,-49.05 21.68,0 35.5,10.84 35.5,41.47l0 76.15 18.7 0 0 -80.22c0,-33.06 -14.9,-54.47 -50.95,-54.47 -18.97,0 -36.31,9.48 -44.99,26.29l-2.71 -22.77 -16.26 0 0 131.17 18.7 0zm124.4 -65.31c0,41.19 25.2,68.56 62.33,68.56 29.81,0 53.12,-17.61 59.35,-44.44l-18.97 0c-5.15,16.8 -20.87,27.64 -40.38,27.64 -26.56,0 -43.9,-20.87 -43.9,-52.03 0,-32.25 18.7,-52.58 45.26,-52.58 18.15,0 33.87,10.03 38.75,28.18l18.7 0c-5.15,-27.1 -27.37,-44.71 -57.73,-44.71 -38.21,0 -63.41,28.18 -63.41,69.38zm205.16 68.56c30.89,0 51.22,-14.9 58.26,-42.55l-17.88 0c-4.88,17.35 -18.7,26.56 -40.11,26.56 -28.19,0 -44.99,-18.43 -46.34,-50.41l104.33 0 0 -9.21c0,-37.13 -24.11,-62.33 -59.62,-62.33 -37.4,0 -62.87,28.18 -62.87,69.11 0,41.19 25.74,68.83 64.23,68.83zm-1.36 -121.95c24.66,0 40.93,16.8 40.93,42l-85.1 0c3.25,-25.74 19.51,-42 44.17,-42zm98.65 -48.51c7.59,0 14.09,-6.24 14.09,-13.82 0,-7.59 -6.5,-14.1 -14.09,-14.1 -7.59,0 -13.82,6.51 -13.82,14.1 0,7.58 6.23,13.82 13.82,13.82zm-9.22 167.21l18.7 0 0 -131.17 -18.7 0 0 131.17zm126.3 -132.79c-4.61,-1.09 -8.13,-1.36 -12.2,-1.36 -18.43,0 -32.25,9.21 -37.4,23.31l-1.35 -20.33 -17.62 0 0 131.17 18.7 0 0 -74.8c0,-24.93 15.45,-41.19 39.57,-41.19l10.3 0 0 -16.8zm57.18 136.04c22.23,0 40.11,-9.75 48.24,-26.29l2.44 23.04 15.72 0 0 -84.83c0,-34.69 -22.22,-49.86 -52.58,-49.86 -32.25,0 -53.93,17.07 -53.93,43.63l17.08 0c0,-17.62 13.55,-27.91 36.31,-27.91 19.24,0 34.69,8.13 34.69,33.87l0 4.34 -43.36 3.52c-30.62,2.44 -49.05,17.62 -49.05,41.74 0,23.03 16.53,38.75 44.44,38.75zm4.34 -15.17c-17.89,0 -29.81,-8.13 -29.81,-24.12 0,-14.64 10.03,-25.48 34.69,-27.65l38.75 -2.98 0 7.05c0,28.45 -15.99,47.7 -43.63,47.7z"/>
 </g>
</svg>
