<?xml version="1.0" encoding="UTF-8"?>
<!DOCTYPE svg PUBLIC "-//W3C//DTD SVG 1.1//EN" "http://www.w3.org/Graphics/SVG/1.1/DTD/svg11.dtd">
<!-- Creator: CorelDRAW (Versão OEM) -->
<svg xmlns="http://www.w3.org/2000/svg" xml:space="preserve" width="70mm" height="70mm" version="1.1" style="shape-rendering:geometricPrecision; text-rendering:geometricPrecision; image-rendering:optimizeQuality; fill-rule:evenodd; clip-rule:evenodd"
viewBox="0 0 7000 7000"
 xmlns:xlink="http://www.w3.org/1999/xlink"
 xmlns:xodm="http://www.corel.com/coreldraw/odm/2003">
 <defs>
  <style type="text/css">
   <![CDATA[
    .fil0 {fill:#FEFEFE}
    .fil1 {fill:#FEFEFE;fill-rule:nonzero}
   ]]>
  </style>
 </defs>
 <g id="Camada_x0020_1">
  <metadata id="CorelCorpID_0Corel-Layer"/>
  <g id="_1971695091344">
   <g>
    <path class="fil0" d="M3611.9 5310.64l0.56 -487.41 -368 0.05 -0.38 155.01 193.01 0.33 0.74 167.54 -180.15 -0.36c-159.87,-2.51 -268,-120.86 -257.11,-286.9 6.83,-104.31 74.4,-180.64 153.15,-209.39 84.54,-30.85 250.93,-18.92 344.67,-18.68l106.32 -166.86c-23.31,-2.64 -259.08,-0.98 -301.88,-0.71 -103.13,0.64 -175.08,1.46 -259.6,42.78 -140.14,68.51 -217.04,202.73 -226.75,344.28 -6.39,93.13 16.32,189.44 69.25,272.31 39.01,61.07 95.62,109.4 160.65,143.01 81.57,42.16 154.32,44.57 258.95,44.15l306.57 0.85z"/>
    <path class="fil0" d="M2754.3 5142.17l-0.06 -179.98 -141.23 -143.57c-27.82,-17 -43,-15.7 -79.91,-15.59 -32.78,0.1 -253.5,3.38 -275.79,-4.73 -82.7,-30.09 -74.97,-144.35 -2.55,-165.44 23.26,-6.77 316.29,0.58 374.76,-1.84l106.85 -167.07 -539.46 -0.74 -174.25 168.99 -1.07 188.55 177.88 140.73c68,6.52 288.35,3.77 323.22,15.4 81.67,27.23 83.25,140.31 0.11,164.33l-377.39 1.33 -98.45 166.81 531.35 -1.26 175.99 -165.92z"/>
    <polygon class="fil0" points="1113.65,5309.5 1300.23,5309.13 1570.31,4715.47 1829.08,5309.3 2013.62,5309.32 1644.88,4463.3 1496.94,4463.56 "/>
    <polygon class="fil0" points="4240.38,4463.3 3715.69,4463.3 3715.47,5309.13 3893.84,5308.72 3892.94,4631.69 4377.98,4631.94 4471.11,4463.3 "/>
    <polygon class="fil0" points="3933.06,5038.53 4255.58,5038.11 4339.8,4872.13 4025.32,4871.6 "/>
    <polygon class="fil0" points="1424.29,5309.85 1707.02,5309.42 1567.8,5001.63 "/>
   </g>
   <path class="fil1" d="M1201.6 5430.14c28.46,0 51.22,13.55 59.35,40.11l21.14 0c-7.59,-35.23 -39.3,-58.54 -80.22,-58.54 -55.56,0 -93.5,41.74 -93.5,101.09 0,59.89 37.94,99.46 92.96,99.46 31.44,0 55.83,-14.63 66.13,-33.87l1.89 30.89 15.45 0 0 -105.15 -88.62 0 0 17.34 70.19 0 0 10.03c0,46.61 -31.71,62.33 -64.23,62.33 -43.63,0 -73.44,-30.62 -73.44,-81.03 0,-49.59 28.18,-82.66 72.9,-82.66zm172.91 182.12c30.89,0 51.22,-14.9 58.26,-42.55l-17.88 0c-4.88,17.35 -18.7,26.56 -40.11,26.56 -28.19,0 -44.99,-18.43 -46.34,-50.41l104.33 0 0 -9.21c0,-37.13 -24.11,-62.33 -59.62,-62.33 -37.4,0 -62.87,28.18 -62.87,69.11 0,41.19 25.74,68.83 64.23,68.83zm-1.36 -121.95c24.66,0 40.93,16.8 40.93,42l-85.1 0c3.25,-25.74 19.51,-42 44.17,-42zm78.32 81.84c0,24.39 18.43,40.11 47.97,40.11 29.81,0 49.87,-15.45 49.87,-39.02 0,-18.97 -10.3,-29.54 -33.07,-35.23l-22.49 -5.7c-14.36,-3.52 -21.41,-10.57 -21.41,-20.59 0,-14.1 10.3,-21.95 28.73,-21.95 17.61,0 28.18,8.94 28.72,24.12l18.16 0c-0.81,-24.4 -18.7,-39.57 -46.34,-39.57 -28.19,0 -47.43,14.63 -47.43,37.67 0,17.89 11.11,29.81 33.88,35.5l22.49 5.69c15.45,3.8 20.87,10.03 20.87,20.87 0,14.09 -11.93,22.76 -32.25,22.76 -18.43,0 -29.81,-9.48 -29.81,-24.66l-17.89 0zm158.81 36.86l0 -115.45 26.29 0 0 -15.72 -26.29 0 0 -41.46 -18.42 0 0 41.46 -26.29 0 0 15.72 26.29 0 0 115.45 18.42 0zm76.7 -150.95c0,-9.49 2.98,-14.64 8.67,-14.64 9.21,0 16.26,14.64 31.71,14.64 14.36,0 22.22,-10.03 21.41,-28.73l-13.28 0c0,9.76 -2.71,14.63 -9.22,14.63 -11.11,0 -18.15,-14.63 -33.06,-14.63 -13.01,0 -20.87,10.84 -19.78,28.73l13.55 0zm9.48 154.2c22.23,0 40.11,-9.75 48.24,-26.29l2.44 23.04 15.72 0 0 -84.83c0,-34.69 -22.22,-49.86 -52.58,-49.86 -32.25,0 -53.93,17.07 -53.93,43.63l17.08 0c0,-17.62 13.55,-27.91 36.31,-27.91 19.24,0 34.69,8.13 34.69,33.87l0 4.34 -43.36 3.52c-30.62,2.44 -49.05,17.62 -49.05,41.74 0,23.03 16.53,38.75 44.44,38.75zm4.34 -15.17c-17.89,0 -29.81,-8.13 -29.81,-24.12 0,-14.64 10.03,-25.48 34.69,-27.65l38.75 -2.98 0 7.05c0,28.45 -15.99,47.7 -43.63,47.7zm90.25 -53.66c0,39.83 28.18,68.83 66.67,68.83 38.48,0 66.67,-29 66.67,-68.83 0,-40.11 -28.19,-69.11 -66.67,-69.11 -38.49,0 -66.67,29 -66.67,69.11zm18.97 -0.28c0,-30.35 19.51,-52.03 47.7,-52.03 27.91,0 47.69,21.68 47.69,52.03 0,30.9 -19.78,52.31 -47.69,52.31 -28.19,0 -47.7,-21.41 -47.7,-52.31zm305.69 65.86l18.7 0 0 -131.17 -81.03 0 0 -25.47c0,-15.45 4.34,-23.58 20.06,-23.58l11.38 0 0 -16.26c-4.34,-0.82 -10.03,-1.09 -14.63,-1.09 -19.52,0 -35.51,11.39 -35.51,40.93l0 25.47 -20.05 0 0 15.72 20.05 0 0 115.45 18.7 0 0 -115.45 62.33 0 0 115.45zm9.22 -168.57c7.32,0 13.01,-5.42 13.01,-13.01 0,-7.58 -5.69,-13.28 -13.01,-13.28 -7.59,0 -13.01,5.7 -13.01,13.28 0,7.59 5.42,13.01 13.01,13.01zm66.39 168.57l0 -68.57c0,-29.54 15.18,-49.05 42.01,-49.05 21.68,0 35.5,10.84 35.5,41.47l0 76.15 18.7 0 0 -80.22c0,-33.06 -14.9,-54.47 -50.95,-54.47 -18.97,0 -36.31,9.48 -44.99,26.29l-2.71 -22.77 -16.26 0 0 131.17 18.7 0zm171.28 3.25c22.23,0 40.11,-9.75 48.24,-26.29l2.44 23.04 15.72 0 0 -84.83c0,-34.69 -22.22,-49.86 -52.58,-49.86 -32.25,0 -53.93,17.07 -53.93,43.63l17.08 0c0,-17.62 13.55,-27.91 36.31,-27.91 19.24,0 34.69,8.13 34.69,33.87l0 4.34 -43.36 3.52c-30.62,2.44 -49.05,17.62 -49.05,41.74 0,23.03 16.53,38.75 44.44,38.75zm4.34 -15.17c-17.89,0 -29.81,-8.13 -29.81,-24.12 0,-14.64 10.03,-25.48 34.69,-27.65l38.75 -2.98 0 7.05c0,28.45 -15.99,47.7 -43.63,47.7zm118.16 11.92l0 -68.57c0,-29.54 15.18,-49.05 42.01,-49.05 21.68,0 35.5,10.84 35.5,41.47l0 76.15 18.7 0 0 -80.22c0,-33.06 -14.9,-54.47 -50.95,-54.47 -18.97,0 -36.31,9.48 -44.99,26.29l-2.71 -22.77 -16.26 0 0 131.17 18.7 0zm124.4 -65.31c0,41.19 25.2,68.56 62.33,68.56 29.81,0 53.12,-17.61 59.35,-44.44l-18.97 0c-5.15,16.8 -20.87,27.64 -40.38,27.64 -26.56,0 -43.9,-20.87 -43.9,-52.03 0,-32.25 18.7,-52.58 45.26,-52.58 18.15,0 33.87,10.03 38.75,28.18l18.7 0c-5.15,-27.1 -27.37,-44.71 -57.73,-44.71 -38.21,0 -63.41,28.18 -63.41,69.38zm205.16 68.56c30.89,0 51.22,-14.9 58.26,-42.55l-17.88 0c-4.88,17.35 -18.7,26.56 -40.11,26.56 -28.19,0 -44.99,-18.43 -46.34,-50.41l104.33 0 0 -9.21c0,-37.13 -24.11,-62.33 -59.62,-62.33 -37.4,0 -62.87,28.18 -62.87,69.11 0,41.19 25.74,68.83 64.23,68.83zm-1.36 -121.95c24.66,0 40.93,16.8 40.93,42l-85.1 0c3.25,-25.74 19.51,-42 44.17,-42zm98.65 -48.51c7.59,0 14.09,-6.24 14.09,-13.82 0,-7.59 -6.5,-14.1 -14.09,-14.1 -7.59,0 -13.82,6.51 -13.82,14.1 0,7.58 6.23,13.82 13.82,13.82zm-9.22 167.21l18.7 0 0 -131.17 -18.7 0 0 131.17zm126.3 -132.79c-4.61,-1.09 -8.13,-1.36 -12.2,-1.36 -18.43,0 -32.25,9.21 -37.4,23.31l-1.35 -20.33 -17.62 0 0 131.17 18.7 0 0 -74.8c0,-24.93 15.45,-41.19 39.57,-41.19l10.3 0 0 -16.8zm57.18 136.04c22.23,0 40.11,-9.75 48.24,-26.29l2.44 23.04 15.72 0 0 -84.83c0,-34.69 -22.22,-49.86 -52.58,-49.86 -32.25,0 -53.93,17.07 -53.93,43.63l17.08 0c0,-17.62 13.55,-27.91 36.31,-27.91 19.24,0 34.69,8.13 34.69,33.87l0 4.34 -43.36 3.52c-30.62,2.44 -49.05,17.62 -49.05,41.74 0,23.03 16.53,38.75 44.44,38.75zm4.34 -15.17c-17.89,0 -29.81,-8.13 -29.81,-24.12 0,-14.64 10.03,-25.48 34.69,-27.65l38.75 -2.98 0 7.05c0,28.45 -15.99,47.7 -43.63,47.7z"/>
   <path class="fil0" d="M4398.07 3565.8c-10.74,7.57 27.34,162.55 92.89,382.47 103.47,347.14 243.8,823.97 379.76,1156.44 107.8,263.61 258.31,327.44 395.17,303.15 130.55,-23.17 249.15,-122.09 290.06,-385.01 56.38,-362.25 -32.03,-851.96 -65.67,-1079.11 -99,-668.96 -448.55,-2432.33 -1303.11,-2466.06 -379.1,-14.97 -774.7,315.31 -1091.4,894.94 -142.96,261.64 -255.38,551.21 -303.01,818.8 -55.87,313.91 -9.68,776.85 299.34,866.85 366.8,106.81 504.03,-185.12 660.08,-447.35 38.87,-65.27 53.71,-39.47 5.05,-94.31 -233.74,-340.84 -54.19,-772.39 386.85,-763.9 294.62,5.67 374.13,122.09 415.5,250.81 68.77,213.93 -60.27,490.84 -161.51,562.28z"/>
  </g>
 </g>
</svg>
