<?xml version="1.0" encoding="UTF-8"?>
<!DOCTYPE svg PUBLIC "-//W3C//DTD SVG 1.1//EN" "http://www.w3.org/Graphics/SVG/1.1/DTD/svg11.dtd">
<!-- Creator: CorelDRAW (Versão OEM) -->
<svg xmlns="http://www.w3.org/2000/svg" xml:space="preserve" width="70mm" height="70mm" version="1.1" style="shape-rendering:geometricPrecision; text-rendering:geometricPrecision; image-rendering:optimizeQuality; fill-rule:evenodd; clip-rule:evenodd"
viewBox="0 0 7000 7000"
 xmlns:xlink="http://www.w3.org/1999/xlink"
 xmlns:xodm="http://www.corel.com/coreldraw/odm/2003">
 <defs>
  <style type="text/css">
   <![CDATA[
    .fil0 {fill:#153A5D}
    .fil1 {fill:#153A5E}
    .fil2 {fill:#153B5E}
    .fil3 {fill:#153B5F}
    .fil4 {fill:#153C5F}
    .fil5 {fill:#153C60}
    .fil6 {fill:#153D60}
    .fil7 {fill:#153D61}
    .fil8 {fill:#153E62}
    .fil9 {fill:#153E63}
    .fil10 {fill:#153F63}
    .fil11 {fill:#153F64}
    .fil12 {fill:#154064}
    .fil13 {fill:#154065}
    .fil14 {fill:#154165}
    .fil15 {fill:#154166}
    .fil16 {fill:#154267}
    .fil17 {fill:#154268}
    .fil18 {fill:#154368}
    .fil19 {fill:#154369}
    .fil20 {fill:#154469}
    .fil21 {fill:#15446A}
    .fil22 {fill:#15456B}
    .fil23 {fill:#15456C}
    .fil24 {fill:#15466C}
    .fil25 {fill:#15466D}
    .fil26 {fill:#15476D}
    .fil27 {fill:#15476E}
    .fil28 {fill:#15486F}
    .fil29 {fill:#154970}
    .fil30 {fill:#154971}
    .fil31 {fill:#154A71}
    .fil32 {fill:#154A72}
    .fil33 {fill:#154B72}
    .fil34 {fill:#154B73}
    .fil35 {fill:#154C74}
    .fil36 {fill:#154C75}
    .fil37 {fill:#154D75}
    .fil38 {fill:#154D76}
    .fil39 {fill:#154E76}
    .fil40 {fill:#154E77}
    .fil41 {fill:#154F78}
    .fil42 {fill:#155079}
    .fil43 {fill:#15517A}
    .fil44 {fill:#15517B}
    .fil45 {fill:#15527B}
    .fil46 {fill:#15527C}
    .fil47 {fill:#15537D}
    .fil48 {fill:#15547E}
    .fil49 {fill:#15547F}
    .fil50 {fill:#15557F}
    .fil51 {fill:#155580}
    .fil52 {fill:#155681}
    .fil53 {fill:#155782}
    .fil54 {fill:#155783}
    .fil55 {fill:#155883}
    .fil56 {fill:#155884}
    .fil57 {fill:#155985}
    .fil58 {fill:#155A86}
    .fil59 {fill:#155A87}
    .fil60 {fill:#155B87}
    .fil61 {fill:#155B88}
    .fil62 {fill:#155C89}
    .fil63 {fill:#155D89}
    .fil64 {fill:#155D8A}
    .fil65 {fill:#155E8B}
    .fil66 {fill:#155F8C}
    .fil67 {fill:#155F8D}
    .fil68 {fill:#15608E}
    .fil69 {fill:#15618F}
    .fil70 {fill:#156190}
    .fil71 {fill:#156290}
    .fil72 {fill:#156391}
    .fil73 {fill:#156392}
    .fil74 {fill:#156492}
    .fil75 {fill:#156493}
    .fil76 {fill:#156594}
    .fil77 {fill:#156595}
    .fil78 {fill:#156695}
    .fil79 {fill:#156696}
    .fil80 {fill:#156797}
    .fil81 {fill:#156897}
    .fil82 {fill:#156898}
    .fil83 {fill:#156999}
    .fil84 {fill:#15699A}
    .fil85 {fill:#166A9A}
    .fil86 {fill:#166A9B}
    .fil87 {fill:#166B9C}
    .fil88 {fill:#166B9D}
    .fil89 {fill:#166C9D}
    .fil90 {fill:#166D9E}
    .fil91 {fill:#166D9F}
    .fil92 {fill:#166E9F}
    .fil93 {fill:#166EA0}
    .fil94 {fill:#166FA1}
    .fil95 {fill:#166FA2}
    .fil96 {fill:#1670A2}
    .fil97 {fill:#1670A3}
    .fil98 {fill:#1671A4}
    .fil99 {fill:#1672A4}
    .fil100 {fill:#1672A5}
    .fil101 {fill:#1673A6}
    .fil102 {fill:#1674A7}
    .fil103 {fill:#1674A8}
    .fil104 {fill:#1675A9}
    .fil105 {fill:#1676AA}
    .fil106 {fill:#1676AB}
    .fil107 {fill:#1677AB}
    .fil108 {fill:#1678AC}
    .fil109 {fill:#1678AD}
    .fil110 {fill:#1679AD}
    .fil111 {fill:#1679AE}
    .fil112 {fill:#167AAF}
    .fil113 {fill:#167BB0}
    .fil114 {fill:#167BB1}
    .fil115 {fill:#167CB1}
    .fil116 {fill:#167CB2}
    .fil117 {fill:#167DB3}
    .fil118 {fill:#167EB4}
    .fil119 {fill:#167EB5}
    .fil120 {fill:#167FB5}
    .fil121 {fill:#167FB6}
    .fil122 {fill:#1680B7}
    .fil123 {fill:#1681B8}
    .fil124 {fill:#1681B9}
    .fil125 {fill:#1682B9}
    .fil126 {fill:#1682BA}
    .fil127 {fill:#1683BB}
    .fil128 {fill:#1684BC}
    .fil129 {fill:#1685BD}
    .fil130 {fill:#1685BE}
    .fil131 {fill:#1686BE}
    .fil132 {fill:#1686BF}
    .fil133 {fill:#1687BF}
    .fil134 {fill:#1687C0}
    .fil135 {fill:#1688C1}
    .fil136 {fill:#1688C2}
    .fil137 {fill:#1689C2}
    .fil138 {fill:#1689C3}
    .fil139 {fill:#168AC3}
    .fil140 {fill:#168AC4}
    .fil141 {fill:#168BC5}
    .fil142 {fill:#168CC6}
    .fil143 {fill:#168CC7}
    .fil144 {fill:#168DC7}
    .fil145 {fill:#168DC8}
    .fil146 {fill:#168EC8}
    .fil147 {fill:#168EC9}
    .fil148 {fill:#168FCA}
    .fil149 {fill:#168FCB}
    .fil150 {fill:#1690CB}
    .fil151 {fill:#1690CC}
    .fil152 {fill:#1691CC}
    .fil153 {fill:#1691CD}
    .fil154 {fill:#1692CE}
    .fil155 {fill:#1692CF}
    .fil156 {fill:#1693CF}
    .fil157 {fill:#1693D0}
    .fil158 {fill:#1694D0}
    .fil159 {fill:#1694D1}
    .fil160 {fill:#1695D1}
    .fil161 {fill:#1695D2}
    .fil162 {fill:#1696D3}
    .fil163 {fill:#1696D4}
    .fil164 {fill:#1697D4}
    .fil165 {fill:#1697D5}
    .fil166 {fill:#1698D5}
    .fil167 {fill:#1698D6}
    .fil168 {fill:#1699D6}
    .fil169 {fill:#1699D7}
   ]]>
  </style>
    <clipPath id="id0">
     <path d="M3719.54 3626.09c-10.74,7.57 27.34,162.55 92.89,382.47 103.47,347.14 243.8,823.97 379.76,1156.44 107.8,263.61 258.31,327.44 395.17,303.15 130.55,-23.17 249.15,-122.09 290.06,-385.01 56.38,-362.25 -32.03,-851.96 -65.67,-1079.11 -99,-668.96 -448.55,-2432.33 -1303.11,-2466.06 -379.1,-14.97 -774.7,315.31 -1091.4,894.94 -142.96,261.64 -255.38,551.21 -303.01,818.8 -55.87,313.91 -9.68,776.85 299.34,866.85 366.8,106.81 504.03,-185.12 660.08,-447.35 38.87,-65.27 53.71,-39.47 5.05,-94.31 -233.74,-340.84 -54.19,-772.39 386.85,-763.9 294.62,5.67 374.13,122.09 415.5,250.81 68.77,213.93 -60.27,490.84 -161.51,562.28z"/>
    </clipPath>
 </defs>
 <g id="Camada_x0020_1">
  <metadata id="CorelCorpID_0Corel-Layer"/>
  <g>
   <g style="clip-path:url(#id0)">
    <polygon class="fil0" points="2107.01,5549.89 2105.4,5484.22 4950.8,5414.46 4952.41,5480.13 "/>
    <polygon id="_1" class="fil0" points="2105.59,5491.9 2105.02,5468.85 4950.43,5399.1 4950.99,5422.14 "/>
    <polygon id="_2" class="fil0" points="2105.21,5476.54 2104.64,5453.49 4950.05,5383.73 4950.62,5406.78 "/>
    <polygon id="_3" class="fil0" points="2104.83,5461.17 2104.27,5438.12 4949.67,5368.36 4950.24,5391.41 "/>
    <polygon id="_4" class="fil0" points="2104.46,5445.81 2103.89,5422.76 4949.3,5353 4949.86,5376.05 "/>
    <polygon id="_5" class="fil0" points="2104.08,5430.44 2103.51,5407.39 4948.92,5337.63 4949.49,5360.68 "/>
    <polygon id="_6" class="fil0" points="2103.7,5415.07 2103.14,5392.02 4948.54,5322.27 4949.11,5345.31 "/>
    <polygon id="_7" class="fil0" points="2103.32,5399.71 2102.76,5376.66 4948.17,5306.9 4948.73,5329.95 "/>
    <polygon id="_8" class="fil0" points="2102.95,5384.34 2102.38,5361.29 4947.79,5291.53 4948.36,5314.58 "/>
    <polygon id="_9" class="fil0" points="2102.57,5368.98 2102.01,5345.93 4947.41,5276.17 4947.98,5299.22 "/>
    <polygon id="_10" class="fil1" points="2102.19,5353.61 2101.63,5330.56 4947.04,5260.8 4947.6,5283.85 "/>
    <polygon id="_11" class="fil2" points="2101.82,5338.24 2101.25,5315.2 4946.66,5245.44 4947.22,5268.49 "/>
    <polygon id="_12" class="fil2" points="2101.44,5322.88 2100.88,5299.83 4946.28,5230.07 4946.85,5253.12 "/>
    <polygon id="_13" class="fil2" points="2101.06,5307.51 2100.5,5284.46 4945.91,5214.7 4946.47,5237.75 "/>
    <polygon id="_14" class="fil2" points="2100.69,5292.15 2100.12,5269.1 4945.53,5199.34 4946.09,5222.39 "/>
    <polygon id="_15" class="fil2" points="2100.31,5276.78 2099.75,5253.73 4945.15,5183.97 4945.72,5207.02 "/>
    <polygon id="_16" class="fil2" points="2099.93,5261.41 2099.37,5238.37 4944.78,5168.61 4945.34,5191.66 "/>
    <polygon id="_17" class="fil3" points="2099.56,5246.05 2098.99,5223 4944.4,5153.24 4944.96,5176.29 "/>
    <polygon id="_18" class="fil3" points="2099.18,5230.68 2098.62,5207.63 4944.02,5137.87 4944.59,5160.92 "/>
    <polygon id="_19" class="fil4" points="2098.8,5215.32 2098.24,5192.27 4943.65,5122.51 4944.21,5145.56 "/>
    <polygon id="_20" class="fil4" points="2098.43,5199.95 2097.86,5176.9 4943.27,5107.14 4943.83,5130.19 "/>
    <polygon id="_21" class="fil4" points="2098.05,5184.58 2097.49,5161.54 4942.89,5091.78 4943.46,5114.83 "/>
    <polygon id="_22" class="fil5" points="2097.67,5169.22 2097.11,5146.17 4942.52,5076.41 4943.08,5099.46 "/>
    <polygon id="_23" class="fil5" points="2097.3,5153.85 2096.73,5130.8 4942.14,5061.05 4942.7,5084.09 "/>
    <polygon id="_24" class="fil5" points="2096.92,5138.49 2096.36,5115.44 4941.76,5045.68 4942.33,5068.73 "/>
    <polygon id="_25" class="fil6" points="2096.54,5123.12 2095.98,5100.07 4941.39,5030.31 4941.95,5053.36 "/>
    <polygon id="_26" class="fil7" points="2096.17,5107.76 2095.6,5084.71 4941.01,5014.95 4941.57,5038 "/>
    <polygon id="_27" class="fil7" points="2095.79,5092.39 2095.23,5069.34 4940.63,4999.58 4941.2,5022.63 "/>
    <polygon id="_28" class="fil7" points="2095.41,5077.02 2094.85,5053.97 4940.26,4984.22 4940.82,5007.26 "/>
    <polygon id="_29" class="fil7" points="2095.04,5061.66 2094.47,5038.61 4939.88,4968.85 4940.44,4991.9 "/>
    <polygon id="_30" class="fil8" points="2094.66,5046.29 2094.1,5023.24 4939.5,4953.48 4940.07,4976.53 "/>
    <polygon id="_31" class="fil8" points="2094.28,5030.93 2093.72,5007.88 4939.13,4938.12 4939.69,4961.17 "/>
    <polygon id="_32" class="fil8" points="2093.91,5015.56 2093.34,4992.51 4938.75,4922.75 4939.31,4945.8 "/>
    <polygon id="_33" class="fil9" points="2093.53,5000.19 2092.97,4977.14 4938.37,4907.39 4938.94,4930.43 "/>
    <polygon id="_34" class="fil10" points="2093.15,4984.83 2092.59,4961.78 4938,4892.02 4938.56,4915.07 "/>
    <polygon id="_35" class="fil10" points="2092.78,4969.46 2092.21,4946.41 4937.62,4876.65 4938.18,4899.7 "/>
    <polygon id="_36" class="fil11" points="2092.4,4954.1 2091.84,4931.05 4937.24,4861.29 4937.81,4884.34 "/>
    <polygon id="_37" class="fil11" points="2092.02,4938.73 2091.46,4915.68 4936.87,4845.92 4937.43,4868.97 "/>
    <polygon id="_38" class="fil12" points="2091.65,4923.36 2091.08,4900.32 4936.49,4830.56 4937.05,4853.61 "/>
    <polygon id="_39" class="fil13" points="2091.27,4908 2090.71,4884.95 4936.11,4815.19 4936.68,4838.24 "/>
    <polygon id="_40" class="fil13" points="2090.89,4892.63 2090.33,4869.58 4935.74,4799.82 4936.3,4822.87 "/>
    <polygon id="_41" class="fil14" points="2090.52,4877.27 2089.95,4854.22 4935.36,4784.46 4935.92,4807.51 "/>
    <polygon id="_42" class="fil15" points="2090.14,4861.9 2089.57,4838.85 4934.98,4769.09 4935.55,4792.14 "/>
    <polygon id="_43" class="fil15" points="2089.76,4846.53 2089.2,4823.49 4934.61,4753.73 4935.17,4776.78 "/>
    <polygon id="_44" class="fil16" points="2089.39,4831.17 2088.82,4808.12 4934.23,4738.36 4934.79,4761.41 "/>
    <polygon id="_45" class="fil16" points="2089.01,4815.8 2088.44,4792.75 4933.85,4723 4934.42,4746.04 "/>
    <polygon id="_46" class="fil16" points="2088.63,4800.44 2088.07,4777.39 4933.47,4707.63 4934.04,4730.68 "/>
    <polygon id="_47" class="fil17" points="2088.26,4785.07 2087.69,4762.02 4933.1,4692.26 4933.66,4715.31 "/>
    <polygon id="_48" class="fil18" points="2087.88,4769.7 2087.31,4746.66 4932.72,4676.9 4933.29,4699.95 "/>
    <polygon id="_49" class="fil19" points="2087.5,4754.34 2086.94,4731.29 4932.34,4661.53 4932.91,4684.58 "/>
    <polygon id="_50" class="fil20" points="2087.13,4738.97 2086.56,4715.92 4931.97,4646.17 4932.53,4669.21 "/>
    <polygon id="_51" class="fil21" points="2086.75,4723.61 2086.18,4700.56 4931.59,4630.8 4932.16,4653.85 "/>
    <polygon id="_52" class="fil21" points="2086.37,4708.24 2085.81,4685.19 4931.21,4615.43 4931.78,4638.48 "/>
    <polygon id="_53" class="fil22" points="2086,4692.88 2085.43,4669.83 4930.84,4600.07 4931.4,4623.12 "/>
    <polygon id="_54" class="fil22" points="2085.62,4677.51 2085.05,4654.46 4930.46,4584.7 4931.03,4607.75 "/>
    <polygon id="_55" class="fil23" points="2085.24,4662.14 2084.68,4639.09 4930.08,4569.34 4930.65,4592.38 "/>
    <polygon id="_56" class="fil24" points="2084.87,4646.78 2084.3,4623.73 4929.71,4553.97 4930.27,4577.02 "/>
    <polygon id="_57" class="fil25" points="2084.49,4631.41 2083.92,4608.36 4929.33,4538.6 4929.9,4561.65 "/>
    <polygon id="_58" class="fil26" points="2084.11,4616.05 2083.55,4593 4928.95,4523.24 4929.52,4546.29 "/>
    <polygon id="_59" class="fil27" points="2083.74,4600.68 2083.17,4577.63 4928.58,4507.87 4929.14,4530.92 "/>
    <polygon id="_60" class="fil27" points="2083.36,4585.31 2082.79,4562.26 4928.2,4492.51 4928.77,4515.56 "/>
    <polygon id="_61" class="fil28" points="2082.98,4569.95 2082.42,4546.9 4927.82,4477.14 4928.39,4500.19 "/>
    <polygon id="_62" class="fil28" points="2082.61,4554.58 2082.04,4531.53 4927.45,4461.77 4928.01,4484.82 "/>
    <polygon id="_63" class="fil29" points="2082.23,4539.22 2081.66,4516.17 4927.07,4446.41 4927.64,4469.46 "/>
    <polygon id="_64" class="fil29" points="2081.85,4523.85 2081.29,4500.8 4926.69,4431.04 4927.26,4454.09 "/>
    <polygon id="_65" class="fil30" points="2081.48,4508.48 2080.91,4485.44 4926.32,4415.68 4926.88,4438.73 "/>
    <polygon id="_66" class="fil31" points="2081.1,4493.12 2080.53,4470.07 4925.94,4400.31 4926.51,4423.36 "/>
    <polygon id="_67" class="fil32" points="2080.72,4477.75 2080.16,4454.7 4925.56,4384.94 4926.13,4407.99 "/>
    <polygon id="_68" class="fil33" points="2080.35,4462.39 2079.78,4439.34 4925.19,4369.58 4925.75,4392.63 "/>
    <polygon id="_69" class="fil34" points="2079.97,4447.02 2079.4,4423.97 4924.81,4354.21 4925.38,4377.26 "/>
    <polygon id="_70" class="fil35" points="2079.59,4431.65 2079.03,4408.61 4924.43,4338.85 4925,4361.9 "/>
    <polygon id="_71" class="fil35" points="2079.22,4416.29 2078.65,4393.24 4924.06,4323.48 4924.62,4346.53 "/>
    <polygon id="_72" class="fil36" points="2078.84,4400.92 2078.27,4377.87 4923.68,4308.12 4924.25,4331.16 "/>
    <polygon id="_73" class="fil37" points="2078.46,4385.56 2077.9,4362.51 4923.3,4292.75 4923.87,4315.8 "/>
    <polygon id="_74" class="fil38" points="2078.09,4370.19 2077.52,4347.14 4922.93,4277.38 4923.49,4300.43 "/>
    <polygon id="_75" class="fil39" points="2077.71,4354.83 2077.14,4331.78 4922.55,4262.02 4923.12,4285.07 "/>
    <polygon id="_76" class="fil40" points="2077.33,4339.46 2076.77,4316.41 4922.17,4246.65 4922.74,4269.7 "/>
    <polygon id="_77" class="fil41" points="2076.95,4324.09 2076.39,4301.04 4921.8,4231.29 4922.36,4254.33 "/>
    <polygon id="_78" class="fil41" points="2076.58,4308.73 2076.01,4285.68 4921.42,4215.92 4921.99,4238.97 "/>
    <polygon id="_79" class="fil42" points="2076.2,4293.36 2075.64,4270.31 4921.04,4200.55 4921.61,4223.6 "/>
    <polygon id="_80" class="fil42" points="2075.82,4278 2075.26,4254.95 4920.67,4185.19 4921.23,4208.24 "/>
    <polygon id="_81" class="fil43" points="2075.45,4262.63 2074.88,4239.58 4920.29,4169.82 4920.85,4192.87 "/>
    <polygon id="_82" class="fil44" points="2075.07,4247.26 2074.51,4224.21 4919.91,4154.46 4920.48,4177.5 "/>
    <polygon id="_83" class="fil45" points="2074.69,4231.9 2074.13,4208.85 4919.54,4139.09 4920.1,4162.14 "/>
    <polygon id="_84" class="fil46" points="2074.32,4216.53 2073.75,4193.48 4919.16,4123.72 4919.72,4146.77 "/>
    <polygon id="_85" class="fil47" points="2073.94,4201.17 2073.38,4178.12 4918.78,4108.36 4919.35,4131.41 "/>
    <polygon id="_86" class="fil47" points="2073.56,4185.8 2073,4162.75 4918.41,4092.99 4918.97,4116.04 "/>
    <polygon id="_87" class="fil48" points="2073.19,4170.43 2072.62,4147.39 4918.03,4077.63 4918.59,4100.68 "/>
    <polygon id="_88" class="fil49" points="2072.81,4155.07 2072.25,4132.02 4917.65,4062.26 4918.22,4085.31 "/>
    <polygon id="_89" class="fil50" points="2072.43,4139.7 2071.87,4116.65 4917.28,4046.89 4917.84,4069.94 "/>
    <polygon id="_90" class="fil51" points="2072.06,4124.34 2071.49,4101.29 4916.9,4031.53 4917.46,4054.58 "/>
    <polygon id="_91" class="fil52" points="2071.68,4108.97 2071.12,4085.92 4916.52,4016.16 4917.09,4039.21 "/>
    <polygon id="_92" class="fil52" points="2071.3,4093.6 2070.74,4070.56 4916.15,4000.8 4916.71,4023.85 "/>
    <polygon id="_93" class="fil53" points="2070.93,4078.24 2070.36,4055.19 4915.77,3985.43 4916.33,4008.48 "/>
    <polygon id="_94" class="fil54" points="2070.55,4062.87 2069.99,4039.82 4915.39,3970.07 4915.96,3993.11 "/>
    <polygon id="_95" class="fil55" points="2070.17,4047.51 2069.61,4024.46 4915.02,3954.7 4915.58,3977.75 "/>
    <polygon id="_96" class="fil56" points="2069.8,4032.14 2069.23,4009.09 4914.64,3939.33 4915.2,3962.38 "/>
    <polygon id="_97" class="fil57" points="2069.42,4016.77 2068.86,3993.73 4914.26,3923.97 4914.83,3947.02 "/>
    <polygon id="_98" class="fil57" points="2069.04,4001.41 2068.48,3978.36 4913.89,3908.6 4914.45,3931.65 "/>
    <polygon id="_99" class="fil58" points="2068.67,3986.04 2068.1,3962.99 4913.51,3893.24 4914.07,3916.28 "/>
    <polygon id="_100" class="fil59" points="2068.29,3970.68 2067.73,3947.63 4913.13,3877.87 4913.7,3900.92 "/>
    <polygon id="_101" class="fil60" points="2067.91,3955.31 2067.35,3932.26 4912.76,3862.5 4913.32,3885.55 "/>
    <polygon id="_102" class="fil61" points="2067.54,3939.95 2066.97,3916.9 4912.38,3847.14 4912.94,3870.19 "/>
    <polygon id="_103" class="fil62" points="2067.16,3924.58 2066.6,3901.53 4912,3831.77 4912.57,3854.82 "/>
    <polygon id="_104" class="fil63" points="2066.78,3909.21 2066.22,3886.16 4911.63,3816.41 4912.19,3839.45 "/>
    <polygon id="_105" class="fil64" points="2066.41,3893.85 2065.84,3870.8 4911.25,3801.04 4911.81,3824.09 "/>
    <polygon id="_106" class="fil65" points="2066.03,3878.48 2065.47,3855.43 4910.87,3785.67 4911.44,3808.72 "/>
    <polygon id="_107" class="fil65" points="2065.65,3863.12 2065.09,3840.07 4910.5,3770.31 4911.06,3793.36 "/>
    <polygon id="_108" class="fil66" points="2065.28,3847.75 2064.71,3824.7 4910.12,3754.94 4910.68,3777.99 "/>
    <polygon id="_109" class="fil67" points="2064.9,3832.38 2064.33,3809.33 4909.74,3739.58 4910.31,3762.63 "/>
    <polygon id="_110" class="fil68" points="2064.52,3817.02 2063.96,3793.97 4909.37,3724.21 4909.93,3747.26 "/>
    <polygon id="_111" class="fil68" points="2064.15,3801.65 2063.58,3778.6 4908.99,3708.84 4909.55,3731.89 "/>
    <polygon id="_112" class="fil69" points="2063.77,3786.29 2063.2,3763.24 4908.61,3693.48 4909.18,3716.53 "/>
    <polygon id="_113" class="fil70" points="2063.39,3770.92 2062.83,3747.87 4908.23,3678.11 4908.8,3701.16 "/>
    <polygon id="_114" class="fil71" points="2063.02,3755.55 2062.45,3732.51 4907.86,3662.75 4908.42,3685.8 "/>
    <polygon id="_115" class="fil72" points="2062.64,3740.19 2062.07,3717.14 4907.48,3647.38 4908.05,3670.43 "/>
    <polygon id="_116" class="fil73" points="2062.26,3724.82 2061.7,3701.77 4907.1,3632.01 4907.67,3655.06 "/>
    <polygon id="_117" class="fil74" points="2061.89,3709.46 2061.32,3686.41 4906.73,3616.65 4907.29,3639.7 "/>
    <polygon id="_118" class="fil75" points="2061.51,3694.09 2060.94,3671.04 4906.35,3601.28 4906.92,3624.33 "/>
    <polygon id="_119" class="fil76" points="2061.13,3678.72 2060.57,3655.68 4905.97,3585.92 4906.54,3608.97 "/>
    <polygon id="_120" class="fil77" points="2060.76,3663.36 2060.19,3640.31 4905.6,3570.55 4906.16,3593.6 "/>
    <polygon id="_121" class="fil78" points="2060.38,3647.99 2059.81,3624.94 4905.22,3555.19 4905.79,3578.23 "/>
    <polygon id="_122" class="fil79" points="2060,3632.63 2059.44,3609.58 4904.84,3539.82 4905.41,3562.87 "/>
    <polygon id="_123" class="fil80" points="2059.63,3617.26 2059.06,3594.21 4904.47,3524.45 4905.03,3547.5 "/>
    <polygon id="_124" class="fil81" points="2059.25,3601.9 2058.68,3578.85 4904.09,3509.09 4904.66,3532.14 "/>
    <polygon id="_125" class="fil82" points="2058.87,3586.53 2058.31,3563.48 4903.71,3493.72 4904.28,3516.77 "/>
    <polygon id="_126" class="fil83" points="2058.5,3571.16 2057.93,3548.11 4903.34,3478.36 4903.9,3501.4 "/>
    <polygon id="_127" class="fil84" points="2058.12,3555.8 2057.55,3532.75 4902.96,3462.99 4903.53,3486.04 "/>
    <polygon id="_128" class="fil85" points="2057.74,3540.43 2057.18,3517.38 4902.58,3447.62 4903.15,3470.67 "/>
    <polygon id="_129" class="fil86" points="2057.37,3525.07 2056.8,3502.02 4902.21,3432.26 4902.77,3455.31 "/>
    <polygon id="_130" class="fil87" points="2056.99,3509.7 2056.42,3486.65 4901.83,3416.89 4902.4,3439.94 "/>
    <polygon id="_131" class="fil88" points="2056.61,3494.33 2056.05,3471.28 4901.45,3401.53 4902.02,3424.57 "/>
    <polygon id="_132" class="fil89" points="2056.24,3478.97 2055.67,3455.92 4901.08,3386.16 4901.64,3409.21 "/>
    <polygon id="_133" class="fil90" points="2055.86,3463.6 2055.29,3440.55 4900.7,3370.79 4901.27,3393.84 "/>
    <polygon id="_134" class="fil91" points="2055.48,3448.24 2054.92,3425.19 4900.32,3355.43 4900.89,3378.48 "/>
    <polygon id="_135" class="fil92" points="2055.11,3432.87 2054.54,3409.82 4899.95,3340.06 4900.51,3363.11 "/>
    <polygon id="_136" class="fil93" points="2054.73,3417.5 2054.16,3394.46 4899.57,3324.7 4900.14,3347.75 "/>
    <polygon id="_137" class="fil94" points="2054.35,3402.14 2053.79,3379.09 4899.19,3309.33 4899.76,3332.38 "/>
    <polygon id="_138" class="fil95" points="2053.98,3386.77 2053.41,3363.72 4898.82,3293.96 4899.38,3317.01 "/>
    <polygon id="_139" class="fil96" points="2053.6,3371.41 2053.03,3348.36 4898.44,3278.6 4899.01,3301.65 "/>
    <polygon id="_140" class="fil97" points="2053.22,3356.04 2052.66,3332.99 4898.06,3263.23 4898.63,3286.28 "/>
    <polygon id="_141" class="fil98" points="2052.85,3340.67 2052.28,3317.63 4897.69,3247.87 4898.25,3270.92 "/>
    <polygon id="_142" class="fil99" points="2052.47,3325.31 2051.9,3302.26 4897.31,3232.5 4897.88,3255.55 "/>
    <polygon id="_143" class="fil100" points="2052.09,3309.94 2051.53,3286.89 4896.93,3217.13 4897.5,3240.18 "/>
    <polygon id="_144" class="fil101" points="2051.72,3294.58 2051.15,3271.53 4896.56,3201.77 4897.12,3224.82 "/>
    <polygon id="_145" class="fil101" points="2051.34,3279.21 2050.77,3256.16 4896.18,3186.4 4896.75,3209.45 "/>
    <polygon id="_146" class="fil102" points="2050.96,3263.84 2050.4,3240.8 4895.8,3171.04 4896.37,3194.09 "/>
    <polygon id="_147" class="fil103" points="2050.58,3248.48 2050.02,3225.43 4895.43,3155.67 4895.99,3178.72 "/>
    <polygon id="_148" class="fil104" points="2050.21,3233.11 2049.64,3210.06 4895.05,3140.31 4895.62,3163.35 "/>
    <polygon id="_149" class="fil104" points="2049.83,3217.75 2049.27,3194.7 4894.67,3124.94 4895.24,3147.99 "/>
    <polygon id="_150" class="fil105" points="2049.45,3202.38 2048.89,3179.33 4894.3,3109.57 4894.86,3132.62 "/>
    <polygon id="_151" class="fil106" points="2049.08,3187.02 2048.51,3163.97 4893.92,3094.21 4894.48,3117.26 "/>
    <polygon id="_152" class="fil107" points="2048.7,3171.65 2048.14,3148.6 4893.54,3078.84 4894.11,3101.89 "/>
    <polygon id="_153" class="fil108" points="2048.32,3156.28 2047.76,3133.23 4893.17,3063.48 4893.73,3086.52 "/>
    <polygon id="_154" class="fil109" points="2047.95,3140.92 2047.38,3117.87 4892.79,3048.11 4893.35,3071.16 "/>
    <polygon id="_155" class="fil110" points="2047.57,3125.55 2047.01,3102.5 4892.41,3032.74 4892.98,3055.79 "/>
    <polygon id="_156" class="fil111" points="2047.19,3110.19 2046.63,3087.14 4892.04,3017.38 4892.6,3040.43 "/>
    <polygon id="_157" class="fil112" points="2046.82,3094.82 2046.25,3071.77 4891.66,3002.01 4892.22,3025.06 "/>
    <polygon id="_158" class="fil112" points="2046.44,3079.45 2045.88,3056.4 4891.28,2986.65 4891.85,3009.7 "/>
    <polygon id="_159" class="fil113" points="2046.06,3064.09 2045.5,3041.04 4890.91,2971.28 4891.47,2994.33 "/>
    <polygon id="_160" class="fil114" points="2045.69,3048.72 2045.12,3025.67 4890.53,2955.91 4891.09,2978.96 "/>
    <polygon id="_161" class="fil115" points="2045.31,3033.36 2044.75,3010.31 4890.15,2940.55 4890.72,2963.6 "/>
    <polygon id="_162" class="fil116" points="2044.93,3017.99 2044.37,2994.94 4889.78,2925.18 4890.34,2948.23 "/>
    <polygon id="_163" class="fil117" points="2044.56,3002.62 2043.99,2979.58 4889.4,2909.82 4889.96,2932.87 "/>
    <polygon id="_164" class="fil117" points="2044.18,2987.26 2043.62,2964.21 4889.02,2894.45 4889.59,2917.5 "/>
    <polygon id="_165" class="fil118" points="2043.8,2971.89 2043.24,2948.84 4888.65,2879.08 4889.21,2902.13 "/>
    <polygon id="_166" class="fil119" points="2043.43,2956.53 2042.86,2933.48 4888.27,2863.72 4888.83,2886.77 "/>
    <polygon id="_167" class="fil120" points="2043.05,2941.16 2042.49,2918.11 4887.89,2848.35 4888.46,2871.4 "/>
    <polygon id="_168" class="fil121" points="2042.67,2925.79 2042.11,2902.75 4887.52,2832.99 4888.08,2856.04 "/>
    <polygon id="_169" class="fil122" points="2042.3,2910.43 2041.73,2887.38 4887.14,2817.62 4887.7,2840.67 "/>
    <polygon id="_170" class="fil122" points="2041.92,2895.06 2041.36,2872.01 4886.76,2802.26 4887.33,2825.3 "/>
    <polygon id="_171" class="fil123" points="2041.54,2879.7 2040.98,2856.65 4886.39,2786.89 4886.95,2809.94 "/>
    <polygon id="_172" class="fil124" points="2041.17,2864.33 2040.6,2841.28 4886.01,2771.52 4886.57,2794.57 "/>
    <polygon id="_173" class="fil125" points="2040.79,2848.97 2040.23,2825.92 4885.63,2756.16 4886.2,2779.21 "/>
    <polygon id="_174" class="fil126" points="2040.41,2833.6 2039.85,2810.55 4885.26,2740.79 4885.82,2763.84 "/>
    <polygon id="_175" class="fil127" points="2040.04,2818.23 2039.47,2795.18 4884.88,2725.43 4885.44,2748.47 "/>
    <polygon id="_176" class="fil127" points="2039.66,2802.87 2039.1,2779.82 4884.5,2710.06 4885.07,2733.11 "/>
    <polygon id="_177" class="fil128" points="2039.28,2787.5 2038.72,2764.45 4884.13,2694.69 4884.69,2717.74 "/>
    <polygon id="_178" class="fil128" points="2038.91,2772.14 2038.34,2749.09 4883.75,2679.33 4884.31,2702.38 "/>
    <polygon id="_179" class="fil129" points="2038.53,2756.77 2037.96,2733.72 4883.37,2663.96 4883.94,2687.01 "/>
    <polygon id="_180" class="fil130" points="2038.15,2741.4 2037.59,2718.35 4883,2648.6 4883.56,2671.64 "/>
    <polygon id="_181" class="fil131" points="2037.78,2726.04 2037.21,2702.99 4882.62,2633.23 4883.18,2656.28 "/>
    <polygon id="_182" class="fil132" points="2037.4,2710.67 2036.83,2687.62 4882.24,2617.86 4882.81,2640.91 "/>
    <polygon id="_183" class="fil133" points="2037.02,2695.31 2036.46,2672.26 4881.86,2602.5 4882.43,2625.55 "/>
    <polygon id="_184" class="fil134" points="2036.65,2679.94 2036.08,2656.89 4881.49,2587.13 4882.05,2610.18 "/>
    <polygon id="_185" class="fil134" points="2036.27,2664.57 2035.7,2641.53 4881.11,2571.77 4881.68,2594.82 "/>
    <polygon id="_186" class="fil135" points="2035.89,2649.21 2035.33,2626.16 4880.73,2556.4 4881.3,2579.45 "/>
    <polygon id="_187" class="fil136" points="2035.52,2633.84 2034.95,2610.79 4880.36,2541.03 4880.92,2564.08 "/>
    <polygon id="_188" class="fil137" points="2035.14,2618.48 2034.57,2595.43 4879.98,2525.67 4880.55,2548.72 "/>
    <polygon id="_189" class="fil138" points="2034.76,2603.11 2034.2,2580.06 4879.6,2510.3 4880.17,2533.35 "/>
    <polygon id="_190" class="fil139" points="2034.39,2587.74 2033.82,2564.7 4879.23,2494.94 4879.79,2517.99 "/>
    <polygon id="_191" class="fil140" points="2034.01,2572.38 2033.44,2549.33 4878.85,2479.57 4879.42,2502.62 "/>
    <polygon id="_192" class="fil140" points="2033.63,2557.01 2033.07,2533.96 4878.47,2464.2 4879.04,2487.25 "/>
    <polygon id="_193" class="fil141" points="2033.26,2541.65 2032.69,2518.6 4878.1,2448.84 4878.66,2471.89 "/>
    <polygon id="_194" class="fil141" points="2032.88,2526.28 2032.31,2503.23 4877.72,2433.47 4878.29,2456.52 "/>
    <polygon id="_195" class="fil142" points="2032.5,2510.91 2031.94,2487.87 4877.34,2418.11 4877.91,2441.16 "/>
    <polygon id="_196" class="fil142" points="2032.13,2495.55 2031.56,2472.5 4876.97,2402.74 4877.53,2425.79 "/>
    <polygon id="_197" class="fil143" points="2031.75,2480.18 2031.18,2457.13 4876.59,2387.38 4877.16,2410.42 "/>
    <polygon id="_198" class="fil144" points="2031.37,2464.82 2030.81,2441.77 4876.21,2372.01 4876.78,2395.06 "/>
    <polygon id="_199" class="fil145" points="2031,2449.45 2030.43,2426.4 4875.84,2356.64 4876.4,2379.69 "/>
    <polygon id="_200" class="fil146" points="2030.62,2434.09 2030.05,2411.04 4875.46,2341.28 4876.03,2364.33 "/>
    <polygon id="_201" class="fil147" points="2030.24,2418.72 2029.68,2395.67 4875.08,2325.91 4875.65,2348.96 "/>
    <polygon id="_202" class="fil147" points="2029.87,2403.35 2029.3,2380.3 4874.71,2310.55 4875.27,2333.59 "/>
    <polygon id="_203" class="fil148" points="2029.49,2387.99 2028.92,2364.94 4874.33,2295.18 4874.9,2318.23 "/>
    <polygon id="_204" class="fil148" points="2029.11,2372.62 2028.55,2349.57 4873.95,2279.81 4874.52,2302.86 "/>
    <polygon id="_205" class="fil149" points="2028.74,2357.26 2028.17,2334.21 4873.58,2264.45 4874.14,2287.5 "/>
    <polygon id="_206" class="fil150" points="2028.36,2341.89 2027.79,2318.84 4873.2,2249.08 4873.77,2272.13 "/>
    <polygon id="_207" class="fil151" points="2027.98,2326.52 2027.42,2303.47 4872.82,2233.72 4873.39,2256.77 "/>
    <polygon id="_208" class="fil152" points="2027.61,2311.16 2027.04,2288.11 4872.45,2218.35 4873.01,2241.4 "/>
    <polygon id="_209" class="fil153" points="2027.23,2295.79 2026.66,2272.74 4872.07,2202.98 4872.64,2226.03 "/>
    <polygon id="_210" class="fil153" points="2026.85,2280.43 2026.29,2257.38 4871.69,2187.62 4872.26,2210.67 "/>
    <polygon id="_211" class="fil153" points="2026.48,2265.06 2025.91,2242.01 4871.32,2172.25 4871.88,2195.3 "/>
    <polygon id="_212" class="fil154" points="2026.1,2249.69 2025.53,2226.65 4870.94,2156.89 4871.51,2179.94 "/>
    <polygon id="_213" class="fil154" points="2025.72,2234.33 2025.16,2211.28 4870.56,2141.52 4871.13,2164.57 "/>
    <polygon id="_214" class="fil155" points="2025.34,2218.96 2024.78,2195.91 4870.19,2126.15 4870.75,2149.2 "/>
    <polygon id="_215" class="fil156" points="2024.97,2203.6 2024.4,2180.55 4869.81,2110.79 4870.38,2133.84 "/>
    <polygon id="_216" class="fil156" points="2024.59,2188.23 2024.03,2165.18 4869.43,2095.42 4870,2118.47 "/>
    <polygon id="_217" class="fil157" points="2024.21,2172.86 2023.65,2149.82 4869.06,2080.06 4869.62,2103.11 "/>
    <polygon id="_218" class="fil158" points="2023.84,2157.5 2023.27,2134.45 4868.68,2064.69 4869.24,2087.74 "/>
    <polygon id="_219" class="fil158" points="2023.46,2142.13 2022.9,2119.08 4868.3,2049.33 4868.87,2072.37 "/>
    <polygon id="_220" class="fil159" points="2023.08,2126.77 2022.52,2103.72 4867.93,2033.96 4868.49,2057.01 "/>
    <polygon id="_221" class="fil159" points="2022.71,2111.4 2022.14,2088.35 4867.55,2018.59 4868.11,2041.64 "/>
    <polygon id="_222" class="fil160" points="2022.33,2096.04 2021.77,2072.99 4867.17,2003.23 4867.74,2026.28 "/>
    <polygon id="_223" class="fil161" points="2021.95,2080.67 2021.39,2057.62 4866.8,1987.86 4867.36,2010.91 "/>
    <polygon id="_224" class="fil161" points="2021.58,2065.3 2021.01,2042.25 4866.42,1972.5 4866.98,1995.54 "/>
    <polygon id="_225" class="fil161" points="2021.2,2049.94 2020.64,2026.89 4866.04,1957.13 4866.61,1980.18 "/>
    <polygon id="_226" class="fil162" points="2020.82,2034.57 2020.26,2011.52 4865.67,1941.76 4866.23,1964.81 "/>
    <polygon id="_227" class="fil162" points="2020.45,2019.21 2019.88,1996.16 4865.29,1926.4 4865.85,1949.45 "/>
    <polygon id="_228" class="fil162" points="2020.07,2003.84 2019.51,1980.79 4864.91,1911.03 4865.48,1934.08 "/>
    <polygon id="_229" class="fil162" points="2019.69,1988.47 2019.13,1965.42 4864.54,1895.67 4865.1,1918.71 "/>
    <polygon id="_230" class="fil163" points="2019.32,1973.11 2018.75,1950.06 4864.16,1880.3 4864.72,1903.35 "/>
    <polygon id="_231" class="fil164" points="2018.94,1957.74 2018.38,1934.69 4863.78,1864.93 4864.35,1887.98 "/>
    <polygon id="_232" class="fil164" points="2018.56,1942.38 2018,1919.33 4863.41,1849.57 4863.97,1872.62 "/>
    <polygon id="_233" class="fil164" points="2018.19,1927.01 2017.62,1903.96 4863.03,1834.2 4863.59,1857.25 "/>
    <polygon id="_234" class="fil165" points="2017.81,1911.64 2017.25,1888.6 4862.65,1818.84 4863.22,1841.89 "/>
    <polygon id="_235" class="fil165" points="2017.43,1896.28 2016.87,1873.23 4862.28,1803.47 4862.84,1826.52 "/>
    <polygon id="_236" class="fil165" points="2017.06,1880.91 2016.49,1857.86 4861.9,1788.1 4862.46,1811.15 "/>
    <polygon id="_237" class="fil166" points="2016.68,1865.55 2016.12,1842.5 4861.52,1772.74 4862.09,1795.79 "/>
    <polygon id="_238" class="fil166" points="2016.3,1850.18 2015.74,1827.13 4861.15,1757.37 4861.71,1780.42 "/>
    <polygon id="_239" class="fil167" points="2015.93,1834.81 2015.36,1811.77 4860.77,1742.01 4861.33,1765.06 "/>
    <polygon id="_240" class="fil167" points="2015.55,1819.45 2014.99,1796.4 4860.39,1726.64 4860.96,1749.69 "/>
    <polygon id="_241" class="fil167" points="2015.17,1804.08 2014.61,1781.03 4860.02,1711.27 4860.58,1734.32 "/>
    <polygon id="_242" class="fil167" points="2014.8,1788.72 2014.23,1765.67 4859.64,1695.91 4860.2,1718.96 "/>
    <polygon id="_243" class="fil167" points="2014.42,1773.35 2013.86,1750.3 4859.26,1680.54 4859.83,1703.59 "/>
    <polygon id="_244" class="fil167" points="2014.04,1757.98 2013.48,1734.94 4858.89,1665.18 4859.45,1688.23 "/>
    <polygon id="_245" class="fil168" points="2013.67,1742.62 2013.1,1719.57 4858.51,1649.81 4859.07,1672.86 "/>
    <polygon id="_246" class="fil169" points="2013.29,1727.25 2012.73,1704.2 4858.13,1634.45 4858.7,1657.49 "/>
    <polygon id="_247" class="fil169" points="2012.91,1711.89 2012.35,1688.84 4857.76,1619.08 4858.32,1642.13 "/>
    <polygon id="_248" class="fil169" points="2012.54,1696.52 2011.97,1673.47 4857.38,1603.71 4857.94,1626.76 "/>
    <polygon id="_249" class="fil169" points="2012.16,1681.16 2011.59,1658.11 4857,1588.35 4857.57,1611.4 "/>
    <polygon id="_250" class="fil169" points="2011.78,1665.79 2011.22,1642.74 4856.63,1572.98 4857.19,1596.03 "/>
    <polygon id="_251" class="fil169" points="2011.41,1650.42 2010.84,1627.37 4856.25,1557.62 4856.81,1580.66 "/>
    <polygon id="_252" class="fil169" points="2011.03,1635.06 2010.46,1612.01 4855.87,1542.25 4856.44,1565.3 "/>
    <polygon id="_253" class="fil169" points="2010.65,1619.69 2010.09,1596.64 4855.49,1526.88 4856.06,1549.93 "/>
    <polygon id="_254" class="fil169" points="2010.28,1604.33 2009.71,1581.28 4855.12,1511.52 4855.68,1534.57 "/>
    <polygon id="_255" class="fil169" points="2009.9,1588.96 2008.96,1550.47 4854.36,1480.71 4855.31,1519.2 "/>
   </g>
  </g>
 </g>
</svg>
